%TF.GenerationSoftware,KiCad,Pcbnew,(5.1.9-0-10_14)*%
%TF.CreationDate,2021-10-18T12:22:06-07:00*%
%TF.ProjectId,pumpkin_pcb_2,70756d70-6b69-46e5-9f70-63625f322e6b,rev?*%
%TF.SameCoordinates,Original*%
%TF.FileFunction,Profile,NP*%
%FSLAX46Y46*%
G04 Gerber Fmt 4.6, Leading zero omitted, Abs format (unit mm)*
G04 Created by KiCad (PCBNEW (5.1.9-0-10_14)) date 2021-10-18 12:22:06*
%MOMM*%
%LPD*%
G01*
G04 APERTURE LIST*
%TA.AperFunction,Profile*%
%ADD10C,0.200000*%
%TD*%
G04 APERTURE END LIST*
D10*
X119381400Y-68986400D02*
G75*
G03*
X119381400Y-68986400I-1500000J0D01*
G01*
X120764601Y-125887540D02*
X125300316Y-124564620D01*
X117929781Y-126454510D02*
X120764601Y-125887540D01*
X132670850Y-65789332D02*
X133048830Y-68813142D01*
X132103890Y-63332482D02*
X132670850Y-65789332D01*
X131914900Y-60686652D02*
X132103890Y-63332482D01*
X134371740Y-59741712D02*
X131914900Y-60686652D01*
X138907460Y-57662842D02*
X134371740Y-59741712D01*
X138151510Y-60119682D02*
X138907460Y-57662842D01*
X137584540Y-62954512D02*
X138151510Y-60119682D01*
X136828590Y-67490222D02*
X137584540Y-62954512D01*
X136639600Y-70514032D02*
X136828590Y-67490222D01*
X137395550Y-71269982D02*
X136639600Y-70514032D01*
X98464008Y-76372661D02*
X96763115Y-80719391D01*
X151191680Y-67868202D02*
X148734840Y-68057182D01*
X154971450Y-68813142D02*
X151191680Y-67868202D01*
X158940199Y-70514032D02*
X154971450Y-68813142D01*
X163853889Y-72781891D02*
X158940199Y-70514032D01*
X167255669Y-75994681D02*
X163853889Y-72781891D01*
X169901499Y-80530401D02*
X167255669Y-75994681D01*
X171035429Y-84499151D02*
X169901499Y-80530401D01*
X171791389Y-89034861D02*
X171035429Y-84499151D01*
X172358349Y-93381591D02*
X171791389Y-89034861D01*
X172358349Y-97728311D02*
X172358349Y-93381591D01*
X172358349Y-103019980D02*
X172358349Y-97728311D01*
X171791389Y-107555700D02*
X172358349Y-103019980D01*
X171413409Y-111335460D02*
X171791389Y-107555700D01*
X170090489Y-115115220D02*
X171413409Y-111335460D01*
X168200609Y-118328020D02*
X170090489Y-115115220D01*
X165554779Y-121162840D02*
X168200609Y-118328020D01*
X163097929Y-122674740D02*
X165554779Y-121162840D01*
X160452099Y-123997660D02*
X163097929Y-122674740D01*
X107157458Y-67490222D02*
X103944663Y-69380102D01*
X139852400Y-70892012D02*
X137395550Y-71269982D01*
X142498230Y-70136052D02*
X139852400Y-70892012D01*
X145711030Y-69002122D02*
X142498230Y-70136052D01*
X148734840Y-68057182D02*
X145711030Y-69002122D01*
X116795851Y-126076530D02*
X117929781Y-126454510D01*
X113205079Y-125509560D02*
X116795851Y-126076530D01*
X133048830Y-70892012D02*
X122465496Y-66356292D01*
X100731864Y-72592901D02*
X98464008Y-76372661D01*
X118685732Y-65600342D02*
X111693173Y-65978322D01*
X94873234Y-99807180D02*
X95629185Y-104342900D01*
X95251208Y-90924742D02*
X94873234Y-99807180D01*
X95629185Y-86389031D02*
X95251208Y-90924742D01*
X122465496Y-66356292D02*
X118685732Y-65600342D01*
X127568172Y-123997660D02*
X130780970Y-123241710D01*
X125300316Y-124564620D02*
X127568172Y-123997660D01*
X96763115Y-80719391D02*
X95629185Y-86389031D01*
X103566684Y-120028910D02*
X106023531Y-122296770D01*
X100542875Y-116438140D02*
X103566684Y-120028910D01*
X109236329Y-124186650D02*
X113205079Y-125509560D01*
X106023531Y-122296770D02*
X109236329Y-124186650D01*
X133048830Y-68813142D02*
X133048830Y-70892012D01*
X111693173Y-65978322D02*
X107157458Y-67490222D01*
X156861329Y-125320580D02*
X160452099Y-123997660D01*
X152136620Y-126454510D02*
X156861329Y-125320580D01*
X148167870Y-126832480D02*
X152136620Y-126454510D01*
X135316680Y-123430700D02*
X139852400Y-124942600D01*
X132859840Y-123241710D02*
X135316680Y-123430700D01*
X130780970Y-123241710D02*
X132859840Y-123241710D01*
X97330080Y-109634560D02*
X100542875Y-116438140D01*
X95629185Y-104342900D02*
X97330080Y-109634560D01*
X103944663Y-69380102D02*
X100731864Y-72592901D01*
X146089010Y-126643490D02*
X148167870Y-126832480D01*
X143065200Y-125887540D02*
X146089010Y-126643490D01*
X139852400Y-124942600D02*
X143065200Y-125887540D01*
M02*
