%TF.GenerationSoftware,KiCad,Pcbnew,(5.1.9-0-10_14)*%
%TF.CreationDate,2021-10-13T18:32:58-07:00*%
%TF.ProjectId,pumpkin_pcb_2,70756d70-6b69-46e5-9f70-63625f322e6b,rev?*%
%TF.SameCoordinates,Original*%
%TF.FileFunction,Copper,L1,Top*%
%TF.FilePolarity,Positive*%
%FSLAX46Y46*%
G04 Gerber Fmt 4.6, Leading zero omitted, Abs format (unit mm)*
G04 Created by KiCad (PCBNEW (5.1.9-0-10_14)) date 2021-10-13 18:32:58*
%MOMM*%
%LPD*%
G01*
G04 APERTURE LIST*
%TA.AperFunction,ComponentPad*%
%ADD10C,1.524000*%
%TD*%
%TA.AperFunction,SMDPad,CuDef*%
%ADD11R,1.000000X1.900000*%
%TD*%
%TA.AperFunction,ComponentPad*%
%ADD12C,1.800000*%
%TD*%
%TA.AperFunction,ComponentPad*%
%ADD13R,1.800000X1.800000*%
%TD*%
%TA.AperFunction,Conductor*%
%ADD14C,0.250000*%
%TD*%
G04 APERTURE END LIST*
D10*
%TO.P,SW1,*%
%TO.N,*%
X22169600Y-80519653D03*
X28419600Y-80519653D03*
D11*
%TO.P,SW1,1*%
%TO.N,Net-(R1-Pad1)*%
X22169600Y-76469653D03*
%TO.P,SW1,2*%
%TO.N,Net-(SW1-Pad2)*%
X24169600Y-76455653D03*
%TO.P,SW1,3*%
%TO.N,Net-(BAT1-PadPOS)*%
X26169600Y-76455653D03*
%TD*%
%TO.P,R2,2*%
%TO.N,Net-(D2-Pad2)*%
%TA.AperFunction,SMDPad,CuDef*%
G36*
G01*
X38967600Y-79500654D02*
X38967600Y-78600652D01*
G75*
G02*
X39217599Y-78350653I249999J0D01*
G01*
X39917601Y-78350653D01*
G75*
G02*
X40167600Y-78600652I0J-249999D01*
G01*
X40167600Y-79500654D01*
G75*
G02*
X39917601Y-79750653I-249999J0D01*
G01*
X39217599Y-79750653D01*
G75*
G02*
X38967600Y-79500654I0J249999D01*
G01*
G37*
%TD.AperFunction*%
%TO.P,R2,1*%
%TO.N,Net-(R1-Pad1)*%
%TA.AperFunction,SMDPad,CuDef*%
G36*
G01*
X36967600Y-79500654D02*
X36967600Y-78600652D01*
G75*
G02*
X37217599Y-78350653I249999J0D01*
G01*
X37917601Y-78350653D01*
G75*
G02*
X38167600Y-78600652I0J-249999D01*
G01*
X38167600Y-79500654D01*
G75*
G02*
X37917601Y-79750653I-249999J0D01*
G01*
X37217599Y-79750653D01*
G75*
G02*
X36967600Y-79500654I0J249999D01*
G01*
G37*
%TD.AperFunction*%
%TD*%
%TO.P,R1,2*%
%TO.N,Net-(D1-Pad2)*%
%TA.AperFunction,SMDPad,CuDef*%
G36*
G01*
X46390000Y-77920001D02*
X46390000Y-77019999D01*
G75*
G02*
X46639999Y-76770000I249999J0D01*
G01*
X47340001Y-76770000D01*
G75*
G02*
X47590000Y-77019999I0J-249999D01*
G01*
X47590000Y-77920001D01*
G75*
G02*
X47340001Y-78170000I-249999J0D01*
G01*
X46639999Y-78170000D01*
G75*
G02*
X46390000Y-77920001I0J249999D01*
G01*
G37*
%TD.AperFunction*%
%TO.P,R1,1*%
%TO.N,Net-(R1-Pad1)*%
%TA.AperFunction,SMDPad,CuDef*%
G36*
G01*
X44390000Y-77920001D02*
X44390000Y-77019999D01*
G75*
G02*
X44639999Y-76770000I249999J0D01*
G01*
X45340001Y-76770000D01*
G75*
G02*
X45590000Y-77019999I0J-249999D01*
G01*
X45590000Y-77920001D01*
G75*
G02*
X45340001Y-78170000I-249999J0D01*
G01*
X44639999Y-78170000D01*
G75*
G02*
X44390000Y-77920001I0J249999D01*
G01*
G37*
%TD.AperFunction*%
%TD*%
D12*
%TO.P,D1,2*%
%TO.N,Net-(D1-Pad2)*%
X34507600Y-77400653D03*
D13*
%TO.P,D1,1*%
%TO.N,GND*%
X31967600Y-77400653D03*
%TD*%
D10*
%TO.P,BAT1,3*%
%TO.N,N/C*%
X41750000Y-87630000D03*
%TO.P,BAT1,2*%
X36750000Y-84159999D03*
%TO.P,BAT1,1*%
X31750000Y-87630000D03*
%TD*%
D14*
%TO.N,Net-(R1-Pad1)*%
X37567600Y-76100653D02*
X37567600Y-79050653D01*
%TD*%
M02*
