%TF.GenerationSoftware,KiCad,Pcbnew,(5.1.9-0-10_14)*%
%TF.CreationDate,2021-10-18T12:22:06-07:00*%
%TF.ProjectId,pumpkin_pcb_2,70756d70-6b69-46e5-9f70-63625f322e6b,rev?*%
%TF.SameCoordinates,Original*%
%TF.FileFunction,Legend,Top*%
%TF.FilePolarity,Positive*%
%FSLAX46Y46*%
G04 Gerber Fmt 4.6, Leading zero omitted, Abs format (unit mm)*
G04 Created by KiCad (PCBNEW (5.1.9-0-10_14)) date 2021-10-18 12:22:06*
%MOMM*%
%LPD*%
G01*
G04 APERTURE LIST*
%ADD10C,0.500000*%
%ADD11C,0.120000*%
%ADD12C,1.000000*%
%ADD13C,0.150000*%
G04 APERTURE END LIST*
D10*
X151603402Y-101987641D02*
G75*
G02*
X117805201Y-102031799I-16907202J6178841D01*
G01*
D11*
X151770391Y-102157811D02*
G75*
G02*
X117678201Y-101752401I-17074191J-2159989D01*
G01*
D10*
X151588855Y-102282831D02*
G75*
G02*
X117703601Y-101904801I-16968855J-2161969D01*
G01*
D12*
X112978294Y-74051889D02*
X111277398Y-79343559D01*
X157957460Y-90115879D02*
X158902400Y-94462600D01*
X156634540Y-87281059D02*
X157957460Y-90115879D01*
X155500611Y-83690279D02*
X156634540Y-87281059D01*
X154555671Y-81233439D02*
X155500611Y-83690279D01*
X153421741Y-79154569D02*
X154555671Y-81233439D01*
X151909841Y-77264689D02*
X153421741Y-79154569D01*
X150397931Y-75752779D02*
X151909841Y-77264689D01*
X148130081Y-74429869D02*
X150397931Y-75752779D01*
X144539301Y-73106949D02*
X148130081Y-74429869D01*
X110332460Y-90871829D02*
X111088412Y-96730459D01*
X116002103Y-71595040D02*
X112978294Y-74051889D01*
X128475315Y-71595040D02*
X122049721Y-70650100D01*
X123561627Y-78776589D02*
X121482756Y-81989389D01*
X128617055Y-75138569D02*
X123561627Y-78776589D01*
X122616686Y-121487898D02*
X122616686Y-121487898D01*
X111277398Y-79343559D02*
X110332460Y-85391169D01*
X119781863Y-119598018D02*
X122616686Y-121487898D01*
X117325019Y-117330158D02*
X119781863Y-119598018D01*
X115246148Y-113361408D02*
X117325019Y-117330158D01*
X113545256Y-108258728D02*
X115246148Y-113361408D01*
X112222339Y-104100998D02*
X113545256Y-108258728D01*
X144350311Y-104100998D02*
X144350311Y-97297419D01*
X143972341Y-110526588D02*
X144350311Y-104100998D01*
X139247641Y-75941769D02*
X139058651Y-75941769D01*
X141326501Y-78209629D02*
X139247641Y-75941769D01*
X142838411Y-81989389D02*
X141326501Y-78209629D01*
X143405371Y-85013199D02*
X142838411Y-81989389D01*
X143783351Y-90115879D02*
X143405371Y-85013199D01*
X144350311Y-97297419D02*
X143783351Y-90115879D01*
X111466388Y-100132248D02*
X112222339Y-104100998D01*
X111088412Y-96730459D02*
X111466388Y-100132248D01*
X122049721Y-70650100D02*
X116002103Y-71595040D01*
X110332460Y-85391169D02*
X110332460Y-90871829D01*
X126585436Y-108258728D02*
X127908352Y-111282538D01*
X125073530Y-104667958D02*
X126585436Y-108258728D01*
X123750613Y-100132248D02*
X125073530Y-104667958D01*
X122427697Y-95785519D02*
X123750613Y-100132248D01*
X121482756Y-92383729D02*
X122427697Y-95785519D01*
X120726804Y-88603969D02*
X121482756Y-92383729D01*
X120726804Y-84824209D02*
X120726804Y-88603969D01*
X121482756Y-81989389D02*
X120726804Y-84824209D01*
X152854781Y-119975998D02*
X150964901Y-122810818D01*
X155122641Y-117708138D02*
X152854781Y-119975998D01*
X157012520Y-115062308D02*
X155122641Y-117708138D01*
X158902400Y-112983438D02*
X157012520Y-115062308D01*
X160883600Y-109702600D02*
X158902400Y-112983438D01*
X161442400Y-107162600D02*
X160883600Y-109804200D01*
X161548230Y-105423908D02*
X161442400Y-107162600D01*
X161170249Y-101644148D02*
X161548230Y-105423908D01*
X159847340Y-97675399D02*
X161170249Y-101644148D01*
X158902400Y-94462600D02*
X159847340Y-97675399D01*
D11*
%TO.C,D2*%
X152518400Y-84012600D02*
X152362400Y-84012600D01*
X150202400Y-84012600D02*
X150046400Y-84012600D01*
X150202563Y-86613730D02*
G75*
G02*
X150202400Y-84531639I1079837J1041130D01*
G01*
X152362237Y-86613730D02*
G75*
G03*
X152362400Y-84531639I-1079837J1041130D01*
G01*
X150203792Y-87244935D02*
G75*
G02*
X150046884Y-84012600I1078608J1672335D01*
G01*
X152361008Y-87244935D02*
G75*
G03*
X152517916Y-84012600I-1078608J1672335D01*
G01*
%TO.C,D1*%
X118228400Y-84012600D02*
X118072400Y-84012600D01*
X115912400Y-84012600D02*
X115756400Y-84012600D01*
X115912563Y-86613730D02*
G75*
G02*
X115912400Y-84531639I1079837J1041130D01*
G01*
X118072237Y-86613730D02*
G75*
G03*
X118072400Y-84531639I-1079837J1041130D01*
G01*
X115913792Y-87244935D02*
G75*
G02*
X115756884Y-84012600I1078608J1672335D01*
G01*
X118071008Y-87244935D02*
G75*
G03*
X118227916Y-84012600I-1078608J1672335D01*
G01*
%TO.C,BAT1*%
X106727000Y-117322600D02*
G75*
G03*
X106727000Y-117322600I-381000J0D01*
G01*
%TO.C,D2*%
D13*
X154694780Y-86310695D02*
X153694780Y-86310695D01*
X153694780Y-86072600D01*
X153742400Y-85929742D01*
X153837638Y-85834504D01*
X153932876Y-85786885D01*
X154123352Y-85739266D01*
X154266209Y-85739266D01*
X154456685Y-85786885D01*
X154551923Y-85834504D01*
X154647161Y-85929742D01*
X154694780Y-86072600D01*
X154694780Y-86310695D01*
X153790019Y-85358314D02*
X153742400Y-85310695D01*
X153694780Y-85215457D01*
X153694780Y-84977361D01*
X153742400Y-84882123D01*
X153790019Y-84834504D01*
X153885257Y-84786885D01*
X153980495Y-84786885D01*
X154123352Y-84834504D01*
X154694780Y-85405933D01*
X154694780Y-84786885D01*
%TO.C,D1*%
X120404780Y-86310695D02*
X119404780Y-86310695D01*
X119404780Y-86072600D01*
X119452400Y-85929742D01*
X119547638Y-85834504D01*
X119642876Y-85786885D01*
X119833352Y-85739266D01*
X119976209Y-85739266D01*
X120166685Y-85786885D01*
X120261923Y-85834504D01*
X120357161Y-85929742D01*
X120404780Y-86072600D01*
X120404780Y-86310695D01*
X120404780Y-84786885D02*
X120404780Y-85358314D01*
X120404780Y-85072600D02*
X119404780Y-85072600D01*
X119547638Y-85167838D01*
X119642876Y-85263076D01*
X119690495Y-85358314D01*
%TD*%
M02*
