%TF.GenerationSoftware,KiCad,Pcbnew,(5.1.9-0-10_14)*%
%TF.CreationDate,2021-10-18T12:22:06-07:00*%
%TF.ProjectId,pumpkin_pcb_2,70756d70-6b69-46e5-9f70-63625f322e6b,rev?*%
%TF.SameCoordinates,Original*%
%TF.FileFunction,Legend,Bot*%
%TF.FilePolarity,Positive*%
%FSLAX46Y46*%
G04 Gerber Fmt 4.6, Leading zero omitted, Abs format (unit mm)*
G04 Created by KiCad (PCBNEW (5.1.9-0-10_14)) date 2021-10-18 12:22:06*
%MOMM*%
%LPD*%
G01*
G04 APERTURE LIST*
%ADD10C,0.300000*%
%ADD11C,0.120000*%
%ADD12C,0.150000*%
G04 APERTURE END LIST*
D10*
X126568114Y-113619742D02*
X125425257Y-113619742D01*
X125996685Y-114191171D02*
X125996685Y-113048314D01*
X123568114Y-114191171D02*
X123568114Y-112691171D01*
X122996685Y-112691171D01*
X122853828Y-112762600D01*
X122782400Y-112834028D01*
X122710971Y-112976885D01*
X122710971Y-113191171D01*
X122782400Y-113334028D01*
X122853828Y-113405457D01*
X122996685Y-113476885D01*
X123568114Y-113476885D01*
X121853828Y-114191171D02*
X121996685Y-114119742D01*
X122068114Y-114048314D01*
X122139542Y-113905457D01*
X122139542Y-113476885D01*
X122068114Y-113334028D01*
X121996685Y-113262600D01*
X121853828Y-113191171D01*
X121639542Y-113191171D01*
X121496685Y-113262600D01*
X121425257Y-113334028D01*
X121353828Y-113476885D01*
X121353828Y-113905457D01*
X121425257Y-114048314D01*
X121496685Y-114119742D01*
X121639542Y-114191171D01*
X121853828Y-114191171D01*
X120782400Y-114119742D02*
X120639542Y-114191171D01*
X120353828Y-114191171D01*
X120210971Y-114119742D01*
X120139542Y-113976885D01*
X120139542Y-113905457D01*
X120210971Y-113762600D01*
X120353828Y-113691171D01*
X120568114Y-113691171D01*
X120710971Y-113619742D01*
X120782400Y-113476885D01*
X120782400Y-113405457D01*
X120710971Y-113262600D01*
X120568114Y-113191171D01*
X120353828Y-113191171D01*
X120210971Y-113262600D01*
X119496685Y-114191171D02*
X119496685Y-113191171D01*
X119496685Y-112691171D02*
X119568114Y-112762600D01*
X119496685Y-112834028D01*
X119425257Y-112762600D01*
X119496685Y-112691171D01*
X119496685Y-112834028D01*
X118996685Y-113191171D02*
X118425257Y-113191171D01*
X118782400Y-112691171D02*
X118782400Y-113976885D01*
X118710971Y-114119742D01*
X118568114Y-114191171D01*
X118425257Y-114191171D01*
X117925257Y-114191171D02*
X117925257Y-113191171D01*
X117925257Y-112691171D02*
X117996685Y-112762600D01*
X117925257Y-112834028D01*
X117853828Y-112762600D01*
X117925257Y-112691171D01*
X117925257Y-112834028D01*
X117353828Y-113191171D02*
X116996685Y-114191171D01*
X116639542Y-113191171D01*
X115496685Y-114119742D02*
X115639542Y-114191171D01*
X115925257Y-114191171D01*
X116068114Y-114119742D01*
X116139542Y-113976885D01*
X116139542Y-113405457D01*
X116068114Y-113262600D01*
X115925257Y-113191171D01*
X115639542Y-113191171D01*
X115496685Y-113262600D01*
X115425257Y-113405457D01*
X115425257Y-113548314D01*
X116139542Y-113691171D01*
X113639542Y-113619742D02*
X112496685Y-113619742D01*
X113068114Y-114191171D02*
X113068114Y-113048314D01*
D11*
%TO.C,R2*%
X152017400Y-90879664D02*
X152017400Y-90425536D01*
X150547400Y-90879664D02*
X150547400Y-90425536D01*
%TO.C,R1*%
X117727400Y-90879664D02*
X117727400Y-90425536D01*
X116257400Y-90879664D02*
X116257400Y-90425536D01*
%TO.C,BAT1*%
X106727000Y-117322600D02*
G75*
G03*
X106727000Y-117322600I-381000J0D01*
G01*
X108124000Y-122384947D02*
X108124000Y-115730147D01*
X130780800Y-122384947D02*
X108124000Y-122384947D01*
X130780800Y-115730147D02*
X130780800Y-122384947D01*
X108124000Y-115730147D02*
X130780800Y-115730147D01*
%TO.C,SW1*%
D12*
X100545733Y-89787361D02*
X100402876Y-89834980D01*
X100164780Y-89834980D01*
X100069542Y-89787361D01*
X100021923Y-89739742D01*
X99974304Y-89644504D01*
X99974304Y-89549266D01*
X100021923Y-89454028D01*
X100069542Y-89406409D01*
X100164780Y-89358790D01*
X100355257Y-89311171D01*
X100450495Y-89263552D01*
X100498114Y-89215933D01*
X100545733Y-89120695D01*
X100545733Y-89025457D01*
X100498114Y-88930219D01*
X100450495Y-88882600D01*
X100355257Y-88834980D01*
X100117161Y-88834980D01*
X99974304Y-88882600D01*
X99640971Y-88834980D02*
X99402876Y-89834980D01*
X99212400Y-89120695D01*
X99021923Y-89834980D01*
X98783828Y-88834980D01*
X97879066Y-89834980D02*
X98450495Y-89834980D01*
X98164780Y-89834980D02*
X98164780Y-88834980D01*
X98260019Y-88977838D01*
X98355257Y-89073076D01*
X98450495Y-89120695D01*
%TO.C,R2*%
X153989066Y-91104980D02*
X154322400Y-90628790D01*
X154560495Y-91104980D02*
X154560495Y-90104980D01*
X154179542Y-90104980D01*
X154084304Y-90152600D01*
X154036685Y-90200219D01*
X153989066Y-90295457D01*
X153989066Y-90438314D01*
X154036685Y-90533552D01*
X154084304Y-90581171D01*
X154179542Y-90628790D01*
X154560495Y-90628790D01*
X153608114Y-90200219D02*
X153560495Y-90152600D01*
X153465257Y-90104980D01*
X153227161Y-90104980D01*
X153131923Y-90152600D01*
X153084304Y-90200219D01*
X153036685Y-90295457D01*
X153036685Y-90390695D01*
X153084304Y-90533552D01*
X153655733Y-91104980D01*
X153036685Y-91104980D01*
%TO.C,R1*%
X119699066Y-91104980D02*
X120032400Y-90628790D01*
X120270495Y-91104980D02*
X120270495Y-90104980D01*
X119889542Y-90104980D01*
X119794304Y-90152600D01*
X119746685Y-90200219D01*
X119699066Y-90295457D01*
X119699066Y-90438314D01*
X119746685Y-90533552D01*
X119794304Y-90581171D01*
X119889542Y-90628790D01*
X120270495Y-90628790D01*
X118746685Y-91104980D02*
X119318114Y-91104980D01*
X119032400Y-91104980D02*
X119032400Y-90104980D01*
X119127638Y-90247838D01*
X119222876Y-90343076D01*
X119318114Y-90390695D01*
%TO.C,BAT1*%
X135986685Y-117251171D02*
X135843828Y-117298790D01*
X135796209Y-117346409D01*
X135748590Y-117441647D01*
X135748590Y-117584504D01*
X135796209Y-117679742D01*
X135843828Y-117727361D01*
X135939066Y-117774980D01*
X136320019Y-117774980D01*
X136320019Y-116774980D01*
X135986685Y-116774980D01*
X135891447Y-116822600D01*
X135843828Y-116870219D01*
X135796209Y-116965457D01*
X135796209Y-117060695D01*
X135843828Y-117155933D01*
X135891447Y-117203552D01*
X135986685Y-117251171D01*
X136320019Y-117251171D01*
X135367638Y-117489266D02*
X134891447Y-117489266D01*
X135462876Y-117774980D02*
X135129542Y-116774980D01*
X134796209Y-117774980D01*
X134605733Y-116774980D02*
X134034304Y-116774980D01*
X134320019Y-117774980D02*
X134320019Y-116774980D01*
X133177161Y-117774980D02*
X133748590Y-117774980D01*
X133462876Y-117774980D02*
X133462876Y-116774980D01*
X133558114Y-116917838D01*
X133653352Y-117013076D01*
X133748590Y-117060695D01*
X114452400Y-116774980D02*
X114452400Y-117013076D01*
X114690495Y-116917838D02*
X114452400Y-117013076D01*
X114214304Y-116917838D01*
X114595257Y-117203552D02*
X114452400Y-117013076D01*
X114309542Y-117203552D01*
%TD*%
M02*
