  0
SECTION
  2
HEADER
  9
$ACADVER
  1
AC1014
  9
$HANDSEED
  5
FFFF
  9
$MEASUREMENT
 70
     1
  0
ENDSEC
  0
SECTION
  2
TABLES
  0
TABLE
  2
VPORT
  5
8
330
0
100
AcDbSymbolTable
 70
     4
  0
VPORT
  5
2E
330
8
100
AcDbSymbolTableRecord
100
AcDbViewportTableRecord
  2
*ACTIVE
 70
     0
 10
0.0
 20
0.0
 11
1.0
 21
1.0
 12
210.0
 22
148.5
 13
0.0
 23
0.0
 14
10.0
 24
10.0
 15
10.0
 25
10.0
 16
0.0
 26
0.0
 36
1.0
 17
0.0
 27
0.0
 37
0.0
 40
341.0
 41
1.24
 42
50.0
 43
0.0
 44
0.0
 50
0.0
 51
0.0
 71
     0
 72
   100
 73
     1
 74
     3
 75
     0
 76
     0
 77
     0
 78
     0
  0
ENDTAB
  0
TABLE
  2
LTYPE
  5
5
330
0
100
AcDbSymbolTable
 70
     1
  0
LTYPE
  5
14
330
5
100
AcDbSymbolTableRecord
100
AcDbLinetypeTableRecord
  2
BYBLOCK
 70
     0
  3

 72
    65
 73
     0
 40
0.0
  0
LTYPE
  5
15
330
5
100
AcDbSymbolTableRecord
100
AcDbLinetypeTableRecord
  2
BYLAYER
 70
     0
  3

 72
    65
 73
     0
 40
0.0
  0
LTYPE
  5
16
330
5
100
AcDbSymbolTableRecord
100
AcDbLinetypeTableRecord
  2
CONTINUOUS
 70
     0
  3
Solid line
 72
    65
 73
     0
 40
0.0
  0
ENDTAB
  0
TABLE
  2
LAYER
  5
2
100
AcDbSymbolTable
 70
2
  0
LAYER
  5
50
100
AcDbSymbolTableRecord
100
AcDbLayerTableRecord
  2
0
 70
0
  6
CONTINUOUS
  0
LAYER
  5
51
100
AcDbSymbolTableRecord
100
AcDbLayerTableRecord
  2
Layer_1
 70
0
  6
CONTINUOUS
  0
ENDTAB
  0
TABLE
  2
STYLE
  5
3
330
0
100
AcDbSymbolTable
 70
     1
  0
STYLE
  5
11
330
3
100
AcDbSymbolTableRecord
100
AcDbTextStyleTableRecord
  2
STANDARD
 70
     0
 40
0.0
 41
1.0
 50
0.0
 71
     0
 42
2.5
  3
txt
  4

  0
ENDTAB
  0
TABLE
  2
VIEW
  5
6
330
0
100
AcDbSymbolTable
 70
     0
  0
ENDTAB
  0
TABLE
  2
UCS
  5
7
330
0
100
AcDbSymbolTable
 70
     0
  0
ENDTAB
  0
TABLE
  2
APPID
  5
9
330
0
100
AcDbSymbolTable
 70
     2
  0
APPID
  5
12
330
9
100
AcDbSymbolTableRecord
100
AcDbRegAppTableRecord
  2
ACAD
 70
     0
  0
ENDTAB
  0
TABLE
  2
DIMSTYLE
  5
A
330
0
100
AcDbSymbolTable
 70
     1
  0
DIMSTYLE
105
27
330
A
100
AcDbSymbolTableRecord
100
AcDbDimStyleTableRecord
  2
ISO-25
 70
     0
  3

  4

  5

  6

  7

 40
1.0
 41
2.5
 42
0.625
 43
3.75
 44
1.25
 45
0.0
 46
0.0
 47
0.0
 48
0.0
140
2.5
141
2.5
142
0.0
143
0.03937007874016
144
1.0
145
0.0
146
1.0
147
0.625
 71
     0
 72
     0
 73
     0
 74
     0
 75
     0
 76
     0
 77
     1
 78
     8
170
     0
171
     3
172
     1
173
     0
174
     0
175
     0
176
     0
177
     0
178
     0
270
     2
271
     2
272
     2
273
     2
274
     3
340
11
275
     0
280
     0
281
     0
282
     0
283
     0
284
     8
285
     0
286
     0
287
     3
288
     0
  0
ENDTAB
  0
TABLE
  2
BLOCK_RECORD
  5
1
330
0
100
AcDbSymbolTable
 70
     1
  0
BLOCK_RECORD
  5
1F
330
1
100
AcDbSymbolTableRecord
100
AcDbBlockTableRecord
  2
*MODEL_SPACE
  0
BLOCK_RECORD
  5
1B
330
1
100
AcDbSymbolTableRecord
100
AcDbBlockTableRecord
  2
*PAPER_SPACE
  0
ENDTAB
  0
ENDSEC
  0
SECTION
  2
BLOCKS
  0
BLOCK
  5
20
330
1F
100
AcDbEntity
  8
0
100
AcDbBlockBegin
  2
*MODEL_SPACE
 70
     0
 10
0.0
 20
0.0
 30
0.0
  3
*MODEL_SPACE
  1

  0
ENDBLK
  5
21
330
1F
100
AcDbEntity
  8
0
100
AcDbBlockEnd
  0
BLOCK
  5
1C
330
1B
100
AcDbEntity
 67
     1
  8
0
100
AcDbBlockBegin
  2
*PAPER_SPACE
  1

  0
ENDBLK
  5
1D
330
1B
100
AcDbEntity
 67
     1
  8
0
100
AcDbBlockEnd
  0
ENDSEC
  0
SECTION
  2
ENTITIES
  0
LWPOLYLINE
  5
100
100
AcDbEntity
  8
Layer_1
 62
7
100
AcDbPolyline
 90
127
 70
1
 10
109.707586
 20
117.626176
 30
0.0
 10
108.762646
 20
118.382126
 30
0.0
 10
107.912196
 20
119.043586
 30
0.0
 10
106.872766
 20
120.272016
 30
0.0
 10
106.211306
 20
121.500436
 30
0.0
 10
105.927826
 20
122.256386
 30
0.0
 10
105.738836
 20
123.390316
 30
0.0
 10
105.738836
 20
125.091206
 30
0.0
 10
106.022316
 20
127.737035
 30
0.0
 10
106.305796
 20
129.721415
 30
0.0
 10
106.589276
 20
131.800285
 30
0.0
 10
106.967256
 20
133.784665
 30
0.0
 10
107.534216
 20
136.430495
 30
0.0
 10
108.762646
 20
134.257125
 30
0.0
 10
109.424106
 20
132.745225
 30
0.0
 10
109.802076
 20
131.894775
 30
0.0
 10
110.369046
 20
131.705785
 30
0.0
 10
111.219486
 20
131.894775
 30
0.0
 10
111.786456
 20
132.178265
 30
0.0
 10
112.542406
 20
132.367245
 30
0.0
 10
113.203866
 20
132.461745
 30
0.0
 10
114.148806
 20
132.461745
 30
0.0
 10
114.999256
 20
132.367245
 30
0.0
 10
115.660706
 20
132.178265
 30
0.0
 10
116.416666
 20
132.083765
 30
0.0
 10
117.645086
 20
131.894775
 30
0.0
 10
118.306546
 20
131.611295
 30
0.0
 10
119.062496
 20
131.422305
 30
0.0
 10
119.629456
 20
131.422305
 30
0.0
 10
120.146316
 20
131.894295
 30
0.0
 10
120.699196
 20
133.825435
 30
0.0
 10
121.170896
 20
135.391055
 30
0.0
 10
121.519346
 20
136.335995
 30
0.0
 10
121.671806
 20
136.736415
 30
0.0
 10
122.464276
 20
135.202075
 30
0.0
 10
122.842256
 20
132.745225
 30
0.0
 10
123.031246
 20
130.571865
 30
0.0
 10
123.409216
 20
127.170075
 30
0.0
 10
123.598206
 20
124.524246
 30
0.0
 10
123.409216
 20
122.256386
 30
0.0
 10
122.842256
 20
121.027966
 30
0.0
 10
121.519346
 20
118.949096
 30
0.0
 10
120.763386
 20
118.193146
 30
0.0
 10
120.101926
 20
117.720676
 30
0.0
 10
119.723946
 20
116.728486
 30
0.0
 10
119.723956
 20
115.452816
 30
0.0
 10
119.912946
 20
114.129896
 30
0.0
 10
120.385416
 20
112.240016
 30
0.0
 10
121.046866
 20
110.728116
 30
0.0
 10
122.653266
 20
108.365766
 30
0.0
 10
124.165176
 20
106.664866
 30
0.0
 10
125.677076
 20
105.530936
 30
0.0
 10
127.283475
 20
104.302516
 30
0.0
 10
128.984365
 20
102.790616
 30
0.0
 10
129.929305
 20
102.601626
 30
0.0
 10
130.968745
 20
103.357576
 30
0.0
 10
130.874245
 20
104.869486
 30
0.0
 10
130.496265
 20
106.192396
 30
0.0
 10
128.984355
 20
109.027216
 30
0.0
 10
127.755935
 20
112.617996
 30
0.0
 10
127.661435
 20
115.169336
 30
0.0
 10
127.661435
 20
117.248206
 30
0.0
 10
127.944915
 20
118.571116
 30
0.0
 10
128.228395
 20
119.421566
 30
0.0
 10
128.700865
 20
120.272016
 30
0.0
 10
129.834795
 20
121.500436
 30
0.0
 10
131.157715
 20
122.256386
 30
0.0
 10
133.142085
 20
122.823346
 30
0.0
 10
134.748485
 20
122.917846
 30
0.0
 10
136.165895
 20
122.539866
 30
0.0
 10
137.299825
 20
121.972906
 30
0.0
 10
138.339255
 20
121.027966
 30
0.0
 10
139.284195
 20
119.988526
 30
0.0
 10
139.662175
 20
119.232576
 30
0.0
 10
140.134645
 20
118.287636
 30
0.0
 10
140.418125
 20
117.626176
 30
0.0
 10
140.512625
 20
116.775736
 30
0.0
 10
139.992915
 20
115.736296
 30
0.0
 10
138.953465
 20
115.830796
 30
0.0
 10
138.150275
 20
116.728486
 30
0.0
 10
138.150275
 20
116.728486
 30
0.0
 10
137.299825
 20
118.854596
 30
0.0
 10
136.449375
 20
119.705046
 30
0.0
 10
135.220955
 20
120.177516
 30
0.0
 10
133.898035
 20
120.555496
 30
0.0
 10
132.669615
 20
120.555496
 30
0.0
 10
131.535685
 20
119.988526
 30
0.0
 10
130.779735
 20
118.949096
 30
0.0
 10
130.118275
 20
117.437186
 30
0.0
 10
130.212775
 20
115.641806
 30
0.0
 10
130.401755
 20
113.657426
 30
0.0
 10
130.968725
 20
112.051026
 30
0.0
 10
131.535685
 20
110.255646
 30
0.0
 10
132.386135
 20
108.365766
 30
0.0
 10
133.331075
 20
106.570376
 30
0.0
 10
134.370505
 20
105.058466
 30
0.0
 10
135.031965
 20
103.735556
 30
0.0
 10
135.598935
 20
102.318146
 30
0.0
 10
135.882415
 20
101.089716
 30
0.0
 10
136.110545
 20
100.264336
 30
0.0
 10
136.424825
 20
98.641226
 30
0.0
 10
136.650335
 20
97.018127
 30
0.0
 10
136.638335
 20
95.136587
 30
0.0
 10
136.449355
 20
93.152217
 30
0.0
 10
136.071385
 20
91.262337
 30
0.0
 10
135.409925
 20
89.750437
 30
0.0
 10
134.748465
 20
88.333027
 30
0.0
 10
133.425555
 20
86.915617
 30
0.0
 10
131.819155
 20
86.065167
 30
0.0
 10
130.496235
 20
85.498207
 30
0.0
 10
129.173315
 20
85.498207
 30
0.0
 10
113.676296
 20
85.498207
 30
0.0
 10
110.652486
 20
86.159667
 30
0.0
 10
109.329566
 20
87.104597
 30
0.0
 10
108.006656
 20
88.333027
 30
0.0
 10
107.250696
 20
89.561447
 30
0.0
 10
106.400256
 20
91.167847
 30
0.0
 10
105.833286
 20
93.057727
 30
0.0
 10
106.116766
 20
95.987037
 30
0.0
 10
106.589236
 20
99.861296
 30
0.0
 10
107.628676
 20
103.924536
 30
0.0
 10
108.384626
 20
106.570376
 30
0.0
 10
109.329566
 20
109.027216
 30
0.0
 10
109.991026
 20
111.295076
 30
0.0
 10
110.557986
 20
113.751926
 30
0.0
 10
111.030466
 20
114.885846
 30
0.0
 10
110.841476
 20
116.114276
 30
0.0
  0
SPLINE
  5
101
100
AcDbEntity
  8
Layer_1
 62
7
100
AcDbSpline
 70
8
 71
3
 72
8
 73
4
 74
0
 40
0
 40
0
 40
0
 40
0
 40
1
 40
1
 40
1
 40
1
 10
110.274546
 20
125.280206
 30
0.0
 10
109.409296
 20
125.676886
 30
0.0
 10
108.762646
 20
126.981075
 30
0.0
 10
108.762646
 20
126.981085
 30
0.0
  0
LWPOLYLINE
  5
102
100
AcDbEntity
  8
Layer_1
 62
7
100
AcDbPolyline
 90
12
 70
0
 10
108.762646
 20
126.981085
 30
0.0
 10
109.613086
 20
127.737035
 30
0.0
 10
110.369046
 20
128.020525
 30
0.0
 10
111.408476
 20
128.115025
 30
0.0
 10
112.258926
 20
128.020525
 30
0.0
 10
112.920376
 20
127.737035
 30
0.0
 10
113.581836
 20
127.264575
 30
0.0
 10
114.054306
 20
126.697605
 30
0.0
 10
113.109366
 20
125.847165
 30
0.0
 10
112.353416
 20
125.469186
 30
0.0
 10
111.502966
 20
125.185706
 30
0.0
 10
110.274546
 20
125.280206
 30
0.0
  0
SPLINE
  5
103
100
AcDbEntity
  8
Layer_1
 62
7
100
AcDbSpline
 70
8
 71
3
 72
8
 73
4
 74
0
 40
0
 40
0
 40
0
 40
0
 40
1
 40
1
 40
1
 40
1
 10
110.274546
 20
125.280206
 30
0.0
 10
109.409296
 20
125.676886
 30
0.0
 10
108.762646
 20
126.981075
 30
0.0
 10
108.762646
 20
126.981085
 30
0.0
  0
LWPOLYLINE
  5
104
100
AcDbEntity
  8
Layer_1
 62
7
100
AcDbPolyline
 90
12
 70
0
 10
108.762646
 20
126.981085
 30
0.0
 10
109.613086
 20
127.737035
 30
0.0
 10
110.369046
 20
128.020525
 30
0.0
 10
111.408476
 20
128.115025
 30
0.0
 10
112.258926
 20
128.020525
 30
0.0
 10
112.920376
 20
127.737035
 30
0.0
 10
113.581836
 20
127.264575
 30
0.0
 10
114.054306
 20
126.697605
 30
0.0
 10
113.109366
 20
125.847165
 30
0.0
 10
112.353416
 20
125.469186
 30
0.0
 10
111.502966
 20
125.185706
 30
0.0
 10
110.274546
 20
125.280206
 30
0.0
  0
SPLINE
  5
105
100
AcDbEntity
  8
Layer_1
 62
7
100
AcDbSpline
 70
8
 71
3
 72
8
 73
4
 74
0
 40
0
 40
0
 40
0
 40
0
 40
1
 40
1
 40
1
 40
1
 10
110.274546
 20
125.280206
 30
0.0
 10
109.409296
 20
125.676886
 30
0.0
 10
108.762646
 20
126.981075
 30
0.0
 10
108.762646
 20
126.981085
 30
0.0
  0
LWPOLYLINE
  5
106
100
AcDbEntity
  8
Layer_1
 62
7
100
AcDbPolyline
 90
12
 70
0
 10
108.762646
 20
126.981085
 30
0.0
 10
109.613086
 20
127.737035
 30
0.0
 10
110.369046
 20
128.020525
 30
0.0
 10
111.408476
 20
128.115025
 30
0.0
 10
112.258926
 20
128.020525
 30
0.0
 10
112.920376
 20
127.737035
 30
0.0
 10
113.581836
 20
127.264575
 30
0.0
 10
114.054306
 20
126.697605
 30
0.0
 10
113.109366
 20
125.847165
 30
0.0
 10
112.353416
 20
125.469186
 30
0.0
 10
111.502966
 20
125.185706
 30
0.0
 10
110.274546
 20
125.280206
 30
0.0
  0
SPLINE
  5
107
100
AcDbEntity
  8
Layer_1
 62
7
100
AcDbSpline
 70
8
 71
3
 72
8
 73
4
 74
0
 40
0
 40
0
 40
0
 40
0
 40
1
 40
1
 40
1
 40
1
 10
110.274546
 20
125.280206
 30
0.0
 10
109.409296
 20
125.676886
 30
0.0
 10
108.762646
 20
126.981075
 30
0.0
 10
108.762646
 20
126.981085
 30
0.0
  0
LWPOLYLINE
  5
108
100
AcDbEntity
  8
Layer_1
 62
7
100
AcDbPolyline
 90
12
 70
0
 10
108.762646
 20
126.981085
 30
0.0
 10
109.613086
 20
127.737035
 30
0.0
 10
110.369046
 20
128.020525
 30
0.0
 10
111.408476
 20
128.115025
 30
0.0
 10
112.258926
 20
128.020525
 30
0.0
 10
112.920376
 20
127.737035
 30
0.0
 10
113.581836
 20
127.264575
 30
0.0
 10
114.054306
 20
126.697605
 30
0.0
 10
113.109366
 20
125.847165
 30
0.0
 10
112.353416
 20
125.469186
 30
0.0
 10
111.502966
 20
125.185706
 30
0.0
 10
110.274546
 20
125.280206
 30
0.0
  0
SPLINE
  5
109
100
AcDbEntity
  8
Layer_1
 62
7
100
AcDbSpline
 70
8
 71
3
 72
8
 73
4
 74
0
 40
0
 40
0
 40
0
 40
0
 40
1
 40
1
 40
1
 40
1
 10
119.242976
 20
125.331996
 30
0.0
 10
120.108226
 20
125.728676
 30
0.0
 10
120.754876
 20
127.032865
 30
0.0
 10
120.754876
 20
127.032875
 30
0.0
  0
LWPOLYLINE
  5
10a
100
AcDbEntity
  8
Layer_1
 62
7
100
AcDbPolyline
 90
12
 70
0
 10
120.754876
 20
127.032875
 30
0.0
 10
119.904436
 20
127.788825
 30
0.0
 10
119.148476
 20
128.072315
 30
0.0
 10
118.109046
 20
128.166815
 30
0.0
 10
117.258596
 20
128.072315
 30
0.0
 10
116.597146
 20
127.788825
 30
0.0
 10
115.935686
 20
127.316365
 30
0.0
 10
115.463216
 20
126.749395
 30
0.0
 10
116.408156
 20
125.898955
 30
0.0
 10
117.164106
 20
125.520976
 30
0.0
 10
118.014556
 20
125.237496
 30
0.0
 10
119.242976
 20
125.331996
 30
0.0
  0
ENDSEC
  0
SECTION
  2
OBJECTS
  0
DICTIONARY
  5
C
330
0
100
AcDbDictionary
  3
ACAD_GROUP
350
D
  3
ACAD_MLINESTYLE
350
17
  0
DICTIONARY
  5
D
330
C
100
AcDbDictionary
  0
DICTIONARY
  5
1A
330
C
100
AcDbDictionary
  0
DICTIONARY
  5
17
330
C
100
AcDbDictionary
  3
STANDARD
350
18
  0
DICTIONARY
  5
19
330
C
100
AcDbDictionary
  0
ENDSEC
  0
EOF
