  0
SECTION
  2
HEADER
  9
$ACADVER
  1
AC1014
  9
$HANDSEED
  5
FFFF
  9
$MEASUREMENT
 70
     1
  0
ENDSEC
  0
SECTION
  2
TABLES
  0
TABLE
  2
VPORT
  5
8
330
0
100
AcDbSymbolTable
 70
     4
  0
VPORT
  5
2E
330
8
100
AcDbSymbolTableRecord
100
AcDbViewportTableRecord
  2
*ACTIVE
 70
     0
 10
0.0
 20
0.0
 11
1.0
 21
1.0
 12
210.0
 22
148.5
 13
0.0
 23
0.0
 14
10.0
 24
10.0
 15
10.0
 25
10.0
 16
0.0
 26
0.0
 36
1.0
 17
0.0
 27
0.0
 37
0.0
 40
341.0
 41
1.24
 42
50.0
 43
0.0
 44
0.0
 50
0.0
 51
0.0
 71
     0
 72
   100
 73
     1
 74
     3
 75
     0
 76
     0
 77
     0
 78
     0
  0
ENDTAB
  0
TABLE
  2
LTYPE
  5
5
330
0
100
AcDbSymbolTable
 70
     1
  0
LTYPE
  5
14
330
5
100
AcDbSymbolTableRecord
100
AcDbLinetypeTableRecord
  2
BYBLOCK
 70
     0
  3

 72
    65
 73
     0
 40
0.0
  0
LTYPE
  5
15
330
5
100
AcDbSymbolTableRecord
100
AcDbLinetypeTableRecord
  2
BYLAYER
 70
     0
  3

 72
    65
 73
     0
 40
0.0
  0
LTYPE
  5
16
330
5
100
AcDbSymbolTableRecord
100
AcDbLinetypeTableRecord
  2
CONTINUOUS
 70
     0
  3
Solid line
 72
    65
 73
     0
 40
0.0
  0
ENDTAB
  0
TABLE
  2
LAYER
  5
2
100
AcDbSymbolTable
 70
2
  0
LAYER
  5
50
100
AcDbSymbolTableRecord
100
AcDbLayerTableRecord
  2
0
 70
0
  6
CONTINUOUS
  0
LAYER
  5
51
100
AcDbSymbolTableRecord
100
AcDbLayerTableRecord
  2
Layer_1
 70
0
  6
CONTINUOUS
  0
ENDTAB
  0
TABLE
  2
STYLE
  5
3
330
0
100
AcDbSymbolTable
 70
     1
  0
STYLE
  5
11
330
3
100
AcDbSymbolTableRecord
100
AcDbTextStyleTableRecord
  2
STANDARD
 70
     0
 40
0.0
 41
1.0
 50
0.0
 71
     0
 42
2.5
  3
txt
  4

  0
ENDTAB
  0
TABLE
  2
VIEW
  5
6
330
0
100
AcDbSymbolTable
 70
     0
  0
ENDTAB
  0
TABLE
  2
UCS
  5
7
330
0
100
AcDbSymbolTable
 70
     0
  0
ENDTAB
  0
TABLE
  2
APPID
  5
9
330
0
100
AcDbSymbolTable
 70
     2
  0
APPID
  5
12
330
9
100
AcDbSymbolTableRecord
100
AcDbRegAppTableRecord
  2
ACAD
 70
     0
  0
ENDTAB
  0
TABLE
  2
DIMSTYLE
  5
A
330
0
100
AcDbSymbolTable
 70
     1
  0
DIMSTYLE
105
27
330
A
100
AcDbSymbolTableRecord
100
AcDbDimStyleTableRecord
  2
ISO-25
 70
     0
  3

  4

  5

  6

  7

 40
1.0
 41
2.5
 42
0.625
 43
3.75
 44
1.25
 45
0.0
 46
0.0
 47
0.0
 48
0.0
140
2.5
141
2.5
142
0.0
143
0.03937007874016
144
1.0
145
0.0
146
1.0
147
0.625
 71
     0
 72
     0
 73
     0
 74
     0
 75
     0
 76
     0
 77
     1
 78
     8
170
     0
171
     3
172
     1
173
     0
174
     0
175
     0
176
     0
177
     0
178
     0
270
     2
271
     2
272
     2
273
     2
274
     3
340
11
275
     0
280
     0
281
     0
282
     0
283
     0
284
     8
285
     0
286
     0
287
     3
288
     0
  0
ENDTAB
  0
TABLE
  2
BLOCK_RECORD
  5
1
330
0
100
AcDbSymbolTable
 70
     1
  0
BLOCK_RECORD
  5
1F
330
1
100
AcDbSymbolTableRecord
100
AcDbBlockTableRecord
  2
*MODEL_SPACE
  0
BLOCK_RECORD
  5
1B
330
1
100
AcDbSymbolTableRecord
100
AcDbBlockTableRecord
  2
*PAPER_SPACE
  0
ENDTAB
  0
ENDSEC
  0
SECTION
  2
BLOCKS
  0
BLOCK
  5
20
330
1F
100
AcDbEntity
  8
0
100
AcDbBlockBegin
  2
*MODEL_SPACE
 70
     0
 10
0.0
 20
0.0
 30
0.0
  3
*MODEL_SPACE
  1

  0
ENDBLK
  5
21
330
1F
100
AcDbEntity
  8
0
100
AcDbBlockEnd
  0
BLOCK
  5
1C
330
1B
100
AcDbEntity
 67
     1
  8
0
100
AcDbBlockBegin
  2
*PAPER_SPACE
  1

  0
ENDBLK
  5
1D
330
1B
100
AcDbEntity
 67
     1
  8
0
100
AcDbBlockEnd
  0
ENDSEC
  0
SECTION
  2
ENTITIES
  0
LWPOLYLINE
  5
100
100
AcDbEntity
  8
Layer_1
 62
7
100
AcDbPolyline
 90
24
 70
0
 10
87.263498
 20
158.460524
 30
0.0
 10
87.129862
 20
154.585114
 30
0.0
 10
86.595322
 20
150.843345
 30
0.0
 10
85.927148
 20
147.368835
 30
0.0
 10
84.724437
 20
141.488915
 30
0.0
 10
83.388087
 20
136.009885
 30
0.0
 10
82.051741
 20
131.733575
 30
0.0
 10
80.448125
 20
128.793605
 30
0.0
 10
79.111775
 20
127.056355
 30
0.0
 10
79.512680
 20
126.388185
 30
0.0
 10
80.751273
 20
126.177135
 30
0.0
 10
82.068445
 20
126.672155
 30
0.0
 10
83.388087
 20
127.724525
 30
0.0
 10
84.323532
 20
127.991795
 30
0.0
 10
85.392610
 20
126.521815
 30
0.0
 10
86.862593
 20
125.720006
 30
0.0
 10
88.867113
 20
125.586376
 30
0.0
 10
91.005270
 20
126.922725
 30
0.0
 10
91.539810
 20
127.457265
 30
0.0
 10
92.475252
 20
127.991795
 30
0.0
 10
93.577739
 20
128.125425
 30
0.0
 10
94.343948
 20
127.919195
 30
0.0
 10
94.886812
 20
127.283375
 30
0.0
 10
95.438146
 20
126.324725
 30
0.0
  0
LWPOLYLINE
  5
101
100
AcDbEntity
  8
Layer_1
 62
7
100
AcDbPolyline
 90
16
 70
0
 10
112.787736
 20
158.193254
 30
0.0
 10
112.520466
 20
152.179695
 30
0.0
 10
111.985926
 20
147.368835
 30
0.0
 10
111.585026
 20
143.627065
 30
0.0
 10
110.783216
 20
140.286195
 30
0.0
 10
109.714136
 20
136.009885
 30
0.0
 10
108.511426
 20
132.401745
 30
0.0
 10
107.442346
 20
130.129955
 30
0.0
 10
106.172816
 20
127.924985
 30
0.0
 10
105.170556
 20
126.588635
 30
0.0
 10
104.435566
 20
126.054095
 30
0.0
 10
103.649266
 20
125.656566
 30
0.0
 10
102.652186
 20
125.921835
 30
0.0
 10
101.938306
 20
126.522535
 30
0.0
 10
101.152706
 20
127.344605
 30
0.0
 10
100.560156
 20
127.524095
 30
0.0
  0
LWPOLYLINE
  5
102
100
AcDbEntity
  8
Layer_1
 62
7
100
AcDbPolyline
 90
10
 70
0
 10
95.438146
 20
126.324725
 30
0.0
 10
96.093463
 20
125.743625
 30
0.0
 10
97.042747
 20
125.405506
 30
0.0
 10
97.842875
 20
125.483806
 30
0.0
 10
98.504333
 20
125.696426
 30
0.0
 10
99.046979
 20
126.195875
 30
0.0
 10
99.436620
 20
126.643525
 30
0.0
 10
100.059306
 20
127.333495
 30
0.0
 10
100.560156
 20
127.524135
 30
0.0
 10
100.560156
 20
127.524135
 30
0.0
  0
LWPOLYLINE
  5
103
100
AcDbEntity
  8
Layer_1
 62
7
100
AcDbPolyline
 90
26
 70
0
 10
87.263498
 20
158.460524
 30
0.0
 10
87.330308
 20
159.863684
 30
0.0
 10
87.798030
 20
161.066404
 30
0.0
 10
88.466204
 20
162.202294
 30
0.0
 10
89.000744
 20
162.870474
 30
0.0
 10
89.668918
 20
163.538644
 30
0.0
 10
90.337091
 20
164.206814
 30
0.0
 10
91.138900
 20
164.741354
 30
0.0
 10
92.341611
 20
165.476354
 30
0.0
 10
93.544325
 20
165.944074
 30
0.0
 10
95.081126
 20
166.478614
 30
0.0
 10
96.751559
 20
166.879514
 30
0.0
 10
98.622446
 20
167.146784
 30
0.0
 10
100.359696
 20
167.146784
 30
0.0
 10
102.163766
 20
167.013144
 30
0.0
 10
103.500106
 20
166.812694
 30
0.0
 10
105.237376
 20
166.411794
 30
0.0
 10
106.707356
 20
165.810434
 30
0.0
 10
108.310966
 20
165.075444
 30
0.0
 10
109.714136
 20
164.006364
 30
0.0
 10
110.916846
 20
162.803654
 30
0.0
 10
111.785476
 20
161.600944
 30
0.0
 10
112.386836
 20
160.264594
 30
0.0
 10
112.520466
 20
159.596424
 30
0.0
 10
112.787726
 20
158.193254
 30
0.0
 10
112.787726
 20
158.193254
 30
0.0
  0
SPLINE
  5
104
100
AcDbEntity
  8
Layer_1
 62
7
100
AcDbSpline
 70
8
 71
3
 72
8
 73
4
 74
0
 40
0
 40
0
 40
0
 40
0
 40
1
 40
1
 40
1
 40
1
 10
99.283708
 20
157.804004
 30
0.0
 10
99.214808
 20
157.869004
 30
0.0
 10
99.064625
 20
158.010564
 30
0.0
 10
99.077002
 20
157.998894
 30
0.0
  0
LWPOLYLINE
  5
105
100
AcDbEntity
  8
Layer_1
 62
7
100
AcDbPolyline
 90
21
 70
0
 10
96.950886
 20
155.565584
 30
0.0
 10
96.950886
 20
155.589184
 30
0.0
 10
97.187121
 20
155.612784
 30
0.0
 10
97.328861
 20
155.754524
 30
0.0
 10
97.376111
 20
155.896264
 30
0.0
 10
97.376111
 20
156.038004
 30
0.0
 10
97.234371
 20
156.226994
 30
0.0
 10
96.785526
 20
156.486854
 30
0.0
 10
96.549290
 20
156.817584
 30
0.0
 10
96.643780
 20
157.148314
 30
0.0
 10
96.880016
 20
157.360924
 30
0.0
 10
97.063098
 20
157.467234
 30
0.0
 10
97.417450
 20
157.555834
 30
0.0
 10
97.824955
 20
157.585334
 30
0.0
 10
98.238367
 20
157.526334
 30
0.0
 10
98.521848
 20
157.425924
 30
0.0
 10
98.787613
 20
157.231034
 30
0.0
 10
99.077001
 20
157.219234
 30
0.0
 10
99.244448
 20
157.308834
 30
0.0
 10
99.313238
 20
157.532274
 30
0.0
 10
99.283708
 20
157.804004
 30
0.0
  0
LWPOLYLINE
  5
106
100
AcDbEntity
  8
Layer_1
 62
7
100
AcDbPolyline
 90
1
 70
1
 10
99.077002
 20
157.998894
 30
0.0
  0
LWPOLYLINE
  5
107
100
AcDbEntity
  8
Layer_1
 62
7
100
AcDbPolyline
 90
27
 70
0
 10
96.950886
 20
155.589184
 30
0.0
 10
96.289430
 20
155.541884
 30
0.0
 10
95.887832
 20
155.494684
 30
0.0
 10
95.297242
 20
155.541884
 30
0.0
 10
94.919267
 20
155.589084
 30
0.0
 10
94.470420
 20
155.683584
 30
0.0
 10
93.927079
 20
155.848944
 30
0.0
 10
93.478232
 20
156.085174
 30
0.0
 10
93.076634
 20
156.392284
 30
0.0
 10
92.769527
 20
156.723014
 30
0.0
 10
92.627787
 20
157.077364
 30
0.0
 10
92.627787
 20
157.478964
 30
0.0
 10
92.864020
 20
157.904184
 30
0.0
 10
93.053010
 20
158.140424
 30
0.0
 10
93.478232
 20
158.376664
 30
0.0
 10
93.808961
 20
158.565644
 30
0.0
 10
94.186937
 20
158.660144
 30
0.0
 10
94.777527
 20
158.825504
 30
0.0
 10
95.368114
 20
158.896404
 30
0.0
 10
95.864207
 20
158.967304
 30
0.0
 10
96.383926
 20
158.943704
 30
0.0
 10
97.069006
 20
158.896504
 30
0.0
 10
97.541478
 20
158.754764
 30
0.0
 10
97.966699
 20
158.636644
 30
0.0
 10
98.391922
 20
158.424034
 30
0.0
 10
98.888013
 20
158.116954
 30
0.0
 10
99.077003
 20
157.998834
 30
0.0
  0
SPLINE
  5
108
100
AcDbEntity
  8
Layer_1
 62
7
100
AcDbSpline
 70
8
 71
3
 72
8
 73
4
 74
0
 40
0
 40
0
 40
0
 40
0
 40
1
 40
1
 40
1
 40
1
 10
107.936556
 20
157.603554
 30
0.0
 10
107.867656
 20
157.668554
 30
0.0
 10
107.717476
 20
157.810114
 30
0.0
 10
107.729856
 20
157.798444
 30
0.0
  0
LWPOLYLINE
  5
109
100
AcDbEntity
  8
Layer_1
 62
7
100
AcDbPolyline
 90
21
 70
0
 10
105.603736
 20
155.365134
 30
0.0
 10
105.603736
 20
155.388734
 30
0.0
 10
105.839966
 20
155.412334
 30
0.0
 10
105.981706
 20
155.554074
 30
0.0
 10
106.028906
 20
155.695814
 30
0.0
 10
106.028906
 20
155.837554
 30
0.0
 10
105.887166
 20
156.026544
 30
0.0
 10
105.438326
 20
156.286404
 30
0.0
 10
105.202086
 20
156.617134
 30
0.0
 10
105.296586
 20
156.947864
 30
0.0
 10
105.532826
 20
157.160474
 30
0.0
 10
105.715906
 20
157.266784
 30
0.0
 10
106.070256
 20
157.355384
 30
0.0
 10
106.477766
 20
157.384884
 30
0.0
 10
106.891176
 20
157.325884
 30
0.0
 10
107.174656
 20
157.225474
 30
0.0
 10
107.440426
 20
157.030584
 30
0.0
 10
107.729816
 20
157.018784
 30
0.0
 10
107.897256
 20
157.108384
 30
0.0
 10
107.966056
 20
157.331824
 30
0.0
 10
107.936556
 20
157.603554
 30
0.0
  0
LWPOLYLINE
  5
10a
100
AcDbEntity
  8
Layer_1
 62
7
100
AcDbPolyline
 90
1
 70
1
 10
107.729856
 20
157.798444
 30
0.0
  0
LWPOLYLINE
  5
10b
100
AcDbEntity
  8
Layer_1
 62
7
100
AcDbPolyline
 90
27
 70
0
 10
105.603736
 20
155.388734
 30
0.0
 10
104.942276
 20
155.341434
 30
0.0
 10
104.540686
 20
155.294234
 30
0.0
 10
103.950096
 20
155.341434
 30
0.0
 10
103.572116
 20
155.388634
 30
0.0
 10
103.123266
 20
155.483134
 30
0.0
 10
102.579926
 20
155.648494
 30
0.0
 10
102.131086
 20
155.884724
 30
0.0
 10
101.729486
 20
156.191834
 30
0.0
 10
101.422376
 20
156.522564
 30
0.0
 10
101.280636
 20
156.876914
 30
0.0
 10
101.280636
 20
157.278514
 30
0.0
 10
101.516866
 20
157.703734
 30
0.0
 10
101.705856
 20
157.939974
 30
0.0
 10
102.131086
 20
158.176214
 30
0.0
 10
102.461806
 20
158.365194
 30
0.0
 10
102.839786
 20
158.459694
 30
0.0
 10
103.430376
 20
158.625054
 30
0.0
 10
104.020966
 20
158.695954
 30
0.0
 10
104.517056
 20
158.766854
 30
0.0
 10
105.036776
 20
158.743254
 30
0.0
 10
105.721856
 20
158.696054
 30
0.0
 10
106.194326
 20
158.554314
 30
0.0
 10
106.619546
 20
158.436194
 30
0.0
 10
107.044776
 20
158.223584
 30
0.0
 10
107.540866
 20
157.916504
 30
0.0
 10
107.729856
 20
157.798384
 30
0.0
  0
ENDSEC
  0
SECTION
  2
OBJECTS
  0
DICTIONARY
  5
C
330
0
100
AcDbDictionary
  3
ACAD_GROUP
350
D
  3
ACAD_MLINESTYLE
350
17
  0
DICTIONARY
  5
D
330
C
100
AcDbDictionary
  0
DICTIONARY
  5
1A
330
C
100
AcDbDictionary
  0
DICTIONARY
  5
17
330
C
100
AcDbDictionary
  3
STANDARD
350
18
  0
DICTIONARY
  5
19
330
C
100
AcDbDictionary
  0
ENDSEC
  0
EOF
