  0
SECTION
  2
HEADER
  9
$ACADVER
  1
AC1014
  9
$HANDSEED
  5
FFFF
  9
$MEASUREMENT
 70
     1
  0
ENDSEC
  0
SECTION
  2
TABLES
  0
TABLE
  2
VPORT
  5
8
330
0
100
AcDbSymbolTable
 70
     4
  0
VPORT
  5
2E
330
8
100
AcDbSymbolTableRecord
100
AcDbViewportTableRecord
  2
*ACTIVE
 70
     0
 10
0.0
 20
0.0
 11
1.0
 21
1.0
 12
210.0
 22
148.5
 13
0.0
 23
0.0
 14
10.0
 24
10.0
 15
10.0
 25
10.0
 16
0.0
 26
0.0
 36
1.0
 17
0.0
 27
0.0
 37
0.0
 40
341.0
 41
1.24
 42
50.0
 43
0.0
 44
0.0
 50
0.0
 51
0.0
 71
     0
 72
   100
 73
     1
 74
     3
 75
     0
 76
     0
 77
     0
 78
     0
  0
ENDTAB
  0
TABLE
  2
LTYPE
  5
5
330
0
100
AcDbSymbolTable
 70
     1
  0
LTYPE
  5
14
330
5
100
AcDbSymbolTableRecord
100
AcDbLinetypeTableRecord
  2
BYBLOCK
 70
     0
  3

 72
    65
 73
     0
 40
0.0
  0
LTYPE
  5
15
330
5
100
AcDbSymbolTableRecord
100
AcDbLinetypeTableRecord
  2
BYLAYER
 70
     0
  3

 72
    65
 73
     0
 40
0.0
  0
LTYPE
  5
16
330
5
100
AcDbSymbolTableRecord
100
AcDbLinetypeTableRecord
  2
CONTINUOUS
 70
     0
  3
Solid line
 72
    65
 73
     0
 40
0.0
  0
ENDTAB
  0
TABLE
  2
LAYER
  5
2
100
AcDbSymbolTable
 70
2
  0
LAYER
  5
50
100
AcDbSymbolTableRecord
100
AcDbLayerTableRecord
  2
0
 70
0
  6
CONTINUOUS
  0
LAYER
  5
51
100
AcDbSymbolTableRecord
100
AcDbLayerTableRecord
  2
Layer_1
 70
0
  6
CONTINUOUS
  0
ENDTAB
  0
TABLE
  2
STYLE
  5
3
330
0
100
AcDbSymbolTable
 70
     1
  0
STYLE
  5
11
330
3
100
AcDbSymbolTableRecord
100
AcDbTextStyleTableRecord
  2
STANDARD
 70
     0
 40
0.0
 41
1.0
 50
0.0
 71
     0
 42
2.5
  3
txt
  4

  0
ENDTAB
  0
TABLE
  2
VIEW
  5
6
330
0
100
AcDbSymbolTable
 70
     0
  0
ENDTAB
  0
TABLE
  2
UCS
  5
7
330
0
100
AcDbSymbolTable
 70
     0
  0
ENDTAB
  0
TABLE
  2
APPID
  5
9
330
0
100
AcDbSymbolTable
 70
     2
  0
APPID
  5
12
330
9
100
AcDbSymbolTableRecord
100
AcDbRegAppTableRecord
  2
ACAD
 70
     0
  0
ENDTAB
  0
TABLE
  2
DIMSTYLE
  5
A
330
0
100
AcDbSymbolTable
 70
     1
  0
DIMSTYLE
105
27
330
A
100
AcDbSymbolTableRecord
100
AcDbDimStyleTableRecord
  2
ISO-25
 70
     0
  3

  4

  5

  6

  7

 40
1.0
 41
2.5
 42
0.625
 43
3.75
 44
1.25
 45
0.0
 46
0.0
 47
0.0
 48
0.0
140
2.5
141
2.5
142
0.0
143
0.03937007874016
144
1.0
145
0.0
146
1.0
147
0.625
 71
     0
 72
     0
 73
     0
 74
     0
 75
     0
 76
     0
 77
     1
 78
     8
170
     0
171
     3
172
     1
173
     0
174
     0
175
     0
176
     0
177
     0
178
     0
270
     2
271
     2
272
     2
273
     2
274
     3
340
11
275
     0
280
     0
281
     0
282
     0
283
     0
284
     8
285
     0
286
     0
287
     3
288
     0
  0
ENDTAB
  0
TABLE
  2
BLOCK_RECORD
  5
1
330
0
100
AcDbSymbolTable
 70
     1
  0
BLOCK_RECORD
  5
1F
330
1
100
AcDbSymbolTableRecord
100
AcDbBlockTableRecord
  2
*MODEL_SPACE
  0
BLOCK_RECORD
  5
1B
330
1
100
AcDbSymbolTableRecord
100
AcDbBlockTableRecord
  2
*PAPER_SPACE
  0
ENDTAB
  0
ENDSEC
  0
SECTION
  2
BLOCKS
  0
BLOCK
  5
20
330
1F
100
AcDbEntity
  8
0
100
AcDbBlockBegin
  2
*MODEL_SPACE
 70
     0
 10
0.0
 20
0.0
 30
0.0
  3
*MODEL_SPACE
  1

  0
ENDBLK
  5
21
330
1F
100
AcDbEntity
  8
0
100
AcDbBlockEnd
  0
BLOCK
  5
1C
330
1B
100
AcDbEntity
 67
     1
  8
0
100
AcDbBlockBegin
  2
*PAPER_SPACE
  1

  0
ENDBLK
  5
1D
330
1B
100
AcDbEntity
 67
     1
  8
0
100
AcDbBlockEnd
  0
ENDSEC
  0
SECTION
  2
ENTITIES
  0
SPLINE
  5
100
100
AcDbEntity
  8
Layer_1
 62
7
100
AcDbSpline
 70
8
 71
3
 72
8
 73
4
 74
0
 40
0
 40
0
 40
0
 40
0
 40
1
 40
1
 40
1
 40
1
 10
99.283708
 20
157.804004
 30
0.0
 10
99.214808
 20
157.869004
 30
0.0
 10
99.064625
 20
158.010564
 30
0.0
 10
99.077002
 20
157.998894
 30
0.0
  0
LWPOLYLINE
  5
101
100
AcDbEntity
  8
Layer_1
 62
7
100
AcDbPolyline
 90
21
 70
0
 10
96.950886
 20
155.565584
 30
0.0
 10
96.950886
 20
155.589184
 30
0.0
 10
97.187121
 20
155.612784
 30
0.0
 10
97.328861
 20
155.754524
 30
0.0
 10
97.376111
 20
155.896264
 30
0.0
 10
97.376111
 20
156.038004
 30
0.0
 10
97.234371
 20
156.226994
 30
0.0
 10
96.785526
 20
156.486854
 30
0.0
 10
96.549290
 20
156.817584
 30
0.0
 10
96.643780
 20
157.148314
 30
0.0
 10
96.880016
 20
157.360924
 30
0.0
 10
97.063098
 20
157.467234
 30
0.0
 10
97.417450
 20
157.555834
 30
0.0
 10
97.824955
 20
157.585334
 30
0.0
 10
98.238367
 20
157.526334
 30
0.0
 10
98.521848
 20
157.425924
 30
0.0
 10
98.787613
 20
157.231034
 30
0.0
 10
99.077001
 20
157.219234
 30
0.0
 10
99.244448
 20
157.308834
 30
0.0
 10
99.313238
 20
157.532274
 30
0.0
 10
99.283708
 20
157.804004
 30
0.0
  0
LWPOLYLINE
  5
102
100
AcDbEntity
  8
Layer_1
 62
7
100
AcDbPolyline
 90
1
 70
1
 10
99.077002
 20
157.998894
 30
0.0
  0
SPLINE
  5
103
100
AcDbEntity
  8
Layer_1
 62
7
100
AcDbSpline
 70
8
 71
3
 72
8
 73
4
 74
0
 40
0
 40
0
 40
0
 40
0
 40
1
 40
1
 40
1
 40
1
 10
107.936556
 20
157.603554
 30
0.0
 10
107.867656
 20
157.668554
 30
0.0
 10
107.717476
 20
157.810114
 30
0.0
 10
107.729856
 20
157.798444
 30
0.0
  0
LWPOLYLINE
  5
104
100
AcDbEntity
  8
Layer_1
 62
7
100
AcDbPolyline
 90
21
 70
0
 10
105.603736
 20
155.365134
 30
0.0
 10
105.603736
 20
155.388734
 30
0.0
 10
105.839966
 20
155.412334
 30
0.0
 10
105.981706
 20
155.554074
 30
0.0
 10
106.028906
 20
155.695814
 30
0.0
 10
106.028906
 20
155.837554
 30
0.0
 10
105.887166
 20
156.026544
 30
0.0
 10
105.438326
 20
156.286404
 30
0.0
 10
105.202086
 20
156.617134
 30
0.0
 10
105.296586
 20
156.947864
 30
0.0
 10
105.532826
 20
157.160474
 30
0.0
 10
105.715906
 20
157.266784
 30
0.0
 10
106.070256
 20
157.355384
 30
0.0
 10
106.477766
 20
157.384884
 30
0.0
 10
106.891176
 20
157.325884
 30
0.0
 10
107.174656
 20
157.225474
 30
0.0
 10
107.440426
 20
157.030584
 30
0.0
 10
107.729816
 20
157.018784
 30
0.0
 10
107.897256
 20
157.108384
 30
0.0
 10
107.966056
 20
157.331824
 30
0.0
 10
107.936556
 20
157.603554
 30
0.0
  0
SPLINE
  5
105
100
AcDbEntity
  8
Layer_1
 62
7
100
AcDbSpline
 70
8
 71
3
 72
8
 73
4
 74
0
 40
0
 40
0
 40
0
 40
0
 40
1
 40
1
 40
1
 40
1
 10
97.715787
 20
157.499123
 30
0.0
 10
97.261932
 20
157.499123
 30
0.0
 10
96.852767
 20
157.358108
 30
0.0
 10
96.679084
 20
157.141833
 30
0.0
  0
SPLINE
  5
106
100
AcDbEntity
  8
Layer_1
 62
7
100
AcDbSpline
 70
8
 71
3
 72
8
 73
4
 74
0
 40
0
 40
0
 40
0
 40
0
 40
1
 40
1
 40
1
 40
1
 10
96.679084
 20
157.141833
 30
0.0
 10
96.505401
 20
156.925559
 30
0.0
 10
96.601405
 20
156.676616
 30
0.0
 10
96.922329
 20
156.511086
 30
0.0
  0
SPLINE
  5
107
100
AcDbEntity
  8
Layer_1
 62
7
100
AcDbSpline
 70
8
 71
3
 72
8
 73
4
 74
0
 40
0
 40
0
 40
0
 40
0
 40
1
 40
1
 40
1
 40
1
 10
96.922329
 20
156.511086
 30
0.0
 10
97.243252
 20
156.345557
 30
0.0
 10
97.725896
 20
156.296039
 30
0.0
 10
98.145203
 20
156.385623
 30
0.0
  0
SPLINE
  5
108
100
AcDbEntity
  8
Layer_1
 62
7
100
AcDbSpline
 70
8
 71
3
 72
8
 73
4
 74
0
 40
0
 40
0
 40
0
 40
0
 40
1
 40
1
 40
1
 40
1
 10
98.145203
 20
156.385623
 30
0.0
 10
98.564510
 20
156.475207
 30
0.0
 10
98.837905
 20
156.686250
 30
0.0
 10
98.837905
 20
156.920344
 30
0.0
  0
SPLINE
  5
109
100
AcDbEntity
  8
Layer_1
 62
7
100
AcDbSpline
 70
8
 71
3
 72
8
 73
4
 74
0
 40
0
 40
0
 40
0
 40
0
 40
1
 40
1
 40
1
 40
1
 10
98.837905
 20
156.920344
 30
0.0
 10
98.837905
 20
157.073846
 30
0.0
 10
98.719682
 20
157.221060
 30
0.0
 10
98.509244
 20
157.329602
 30
0.0
  0
SPLINE
  5
10a
100
AcDbEntity
  8
Layer_1
 62
7
100
AcDbSpline
 70
8
 71
3
 72
8
 73
4
 74
0
 40
0
 40
0
 40
0
 40
0
 40
1
 40
1
 40
1
 40
1
 10
98.509244
 20
157.329602
 30
0.0
 10
98.298806
 20
157.438144
 30
0.0
 10
98.013391
 20
157.499123
 30
0.0
 10
97.715787
 20
157.499123
 30
0.0
  0
LWPOLYLINE
  5
10b
100
AcDbEntity
  8
Layer_1
 62
7
100
AcDbPolyline
 90
1
 70
1
 10
107.729856
 20
157.798444
 30
0.0
  0
SPLINE
  5
10c
100
AcDbEntity
  8
Layer_1
 62
7
100
AcDbSpline
 70
8
 71
3
 72
8
 73
4
 74
0
 40
0
 40
0
 40
0
 40
0
 40
1
 40
1
 40
1
 40
1
 10
106.435456
 20
157.265263
 30
0.0
 10
105.981601
 20
157.265263
 30
0.0
 10
105.572436
 20
157.124248
 30
0.0
 10
105.398754
 20
156.907973
 30
0.0
  0
SPLINE
  5
10d
100
AcDbEntity
  8
Layer_1
 62
7
100
AcDbSpline
 70
8
 71
3
 72
8
 73
4
 74
0
 40
0
 40
0
 40
0
 40
0
 40
1
 40
1
 40
1
 40
1
 10
105.398754
 20
156.907973
 30
0.0
 10
105.225071
 20
156.691699
 30
0.0
 10
105.321075
 20
156.442756
 30
0.0
 10
105.641998
 20
156.277226
 30
0.0
  0
SPLINE
  5
10e
100
AcDbEntity
  8
Layer_1
 62
7
100
AcDbSpline
 70
8
 71
3
 72
8
 73
4
 74
0
 40
0
 40
0
 40
0
 40
0
 40
1
 40
1
 40
1
 40
1
 10
105.641998
 20
156.277226
 30
0.0
 10
105.962922
 20
156.111697
 30
0.0
 10
106.445565
 20
156.062179
 30
0.0
 10
106.864872
 20
156.151763
 30
0.0
  0
SPLINE
  5
10f
100
AcDbEntity
  8
Layer_1
 62
7
100
AcDbSpline
 70
8
 71
3
 72
8
 73
4
 74
0
 40
0
 40
0
 40
0
 40
0
 40
1
 40
1
 40
1
 40
1
 10
106.864872
 20
156.151763
 30
0.0
 10
107.284180
 20
156.241347
 30
0.0
 10
107.557575
 20
156.452390
 30
0.0
 10
107.557575
 20
156.686484
 30
0.0
  0
SPLINE
  5
110
100
AcDbEntity
  8
Layer_1
 62
7
100
AcDbSpline
 70
8
 71
3
 72
8
 73
4
 74
0
 40
0
 40
0
 40
0
 40
0
 40
1
 40
1
 40
1
 40
1
 10
107.557575
 20
156.686484
 30
0.0
 10
107.557575
 20
156.839986
 30
0.0
 10
107.439352
 20
156.987200
 30
0.0
 10
107.228914
 20
157.095742
 30
0.0
  0
SPLINE
  5
111
100
AcDbEntity
  8
Layer_1
 62
7
100
AcDbSpline
 70
8
 71
3
 72
8
 73
4
 74
0
 40
0
 40
0
 40
0
 40
0
 40
1
 40
1
 40
1
 40
1
 10
107.228914
 20
157.095742
 30
0.0
 10
107.018476
 20
157.204284
 30
0.0
 10
106.733061
 20
157.265263
 30
0.0
 10
106.435456
 20
157.265263
 30
0.0
  0
LWPOLYLINE
  5
112
100
AcDbEntity
  8
Layer_1
 62
7
100
AcDbPolyline
 90
1
 70
1
 10
97.715787
 20
157.499123
 30
0.0
  0
LWPOLYLINE
  5
113
100
AcDbEntity
  8
Layer_1
 62
7
100
AcDbPolyline
 90
1
 70
1
 10
106.435456
 20
157.265263
 30
0.0
  0
LWPOLYLINE
  5
114
100
AcDbEntity
  8
Layer_1
 62
7
100
AcDbPolyline
 90
21
 70
0
 10
96.283842
 20
149.707445
 30
0.0
 10
96.684747
 20
150.375625
 30
0.0
 10
97.018833
 20
150.910165
 30
0.0
 10
97.620191
 20
150.976965
 30
0.0
 10
98.154728
 20
150.442435
 30
0.0
 10
98.622451
 20
149.573805
 30
0.0
 10
99.357442
 20
149.172895
 30
0.0
 10
100.025616
 20
149.373355
 30
0.0
 10
100.560156
 20
150.041525
 30
0.0
 10
100.894246
 20
150.642885
 30
0.0
 10
101.161516
 20
150.843335
 30
0.0
 10
101.963316
 20
150.910135
 30
0.0
 10
102.598086
 20
150.542635
 30
0.0
 10
102.865366
 20
149.907865
 30
0.0
 10
103.132636
 20
149.273095
 30
0.0
 10
104.001256
 20
149.172875
 30
0.0
 10
104.521936
 20
149.732345
 30
0.0
 10
104.655576
 20
150.701195
 30
0.0
 10
105.237376
 20
151.043745
 30
0.0
 10
106.072596
 20
150.743075
 30
0.0
 10
106.273046
 20
149.941255
 30
0.0
  0
ENDSEC
  0
SECTION
  2
OBJECTS
  0
DICTIONARY
  5
C
330
0
100
AcDbDictionary
  3
ACAD_GROUP
350
D
  3
ACAD_MLINESTYLE
350
17
  0
DICTIONARY
  5
D
330
C
100
AcDbDictionary
  0
DICTIONARY
  5
1A
330
C
100
AcDbDictionary
  0
DICTIONARY
  5
17
330
C
100
AcDbDictionary
  3
STANDARD
350
18
  0
DICTIONARY
  5
19
330
C
100
AcDbDictionary
  0
ENDSEC
  0
EOF
