<?xml version="1.0" encoding="UTF-8" standalone="no"?>
<svg
   xmlns:dc="http://purl.org/dc/elements/1.1/"
   xmlns:cc="http://creativecommons.org/ns#"
   xmlns:rdf="http://www.w3.org/1999/02/22-rdf-syntax-ns#"
   xmlns:svg="http://www.w3.org/2000/svg"
   xmlns="http://www.w3.org/2000/svg"
   xmlns:sodipodi="http://sodipodi.sourceforge.net/DTD/sodipodi-0.dtd"
   xmlns:inkscape="http://www.inkscape.org/namespaces/inkscape"
   width="215.89999mm"
   height="279.39999mm"
   viewBox="0 0 215.9 279.4"
   version="1.1"
   id="svg8"
   inkscape:version="1.0 (4035a4f, 2020-05-01)"
   sodipodi:docname="ghost_eyes.svg">
  <defs
     id="defs2" />
  <sodipodi:namedview
     id="base"
     pagecolor="#ffffff"
     bordercolor="#666666"
     borderopacity="1.0"
     inkscape:pageopacity="0.0"
     inkscape:pageshadow="2"
     inkscape:zoom="1.979899"
     inkscape:cx="380.18945"
     inkscape:cy="502.21911"
     inkscape:document-units="mm"
     inkscape:current-layer="layer1"
     inkscape:document-rotation="0"
     showgrid="false"
     units="mm"
     inkscape:window-width="1440"
     inkscape:window-height="847"
     inkscape:window-x="0"
     inkscape:window-y="25"
     inkscape:window-maximized="0" />
  <metadata
     id="metadata5">
    <rdf:RDF>
      <cc:Work
         rdf:about="">
        <dc:format>image/svg+xml</dc:format>
        <dc:type
           rdf:resource="http://purl.org/dc/dcmitype/StillImage" />
        <dc:title></dc:title>
      </cc:Work>
    </rdf:RDF>
  </metadata>
  <g
     inkscape:label="Layer 1"
     inkscape:groupmode="layer"
     id="layer1">
    <path
       style="fill:none;stroke:#000000;stroke-width:0.264583px;stroke-linecap:butt;stroke-linejoin:miter;stroke-opacity:1"
       d="m 96.950889,123.8344 v -0.0236 l 0.236235,-0.0236 0.14174,-0.14174 0.04725,-0.14174 v -0.14174 l -0.14174,-0.18899 -0.448845,-0.25986 -0.236236,-0.33073 0.09449,-0.33073 0.236236,-0.21261 0.183082,-0.10631 0.354352,-0.0886 0.407506,-0.0295 0.413412,0.059 0.283481,0.10041 0.265765,0.19489 0.289388,0.0118 0.167447,-0.0896 0.06879,-0.22344 -0.02953,-0.27173 c -0.0689,-0.065 -0.219083,-0.20656 -0.206706,-0.19489 v 0"
       id="path2770"
       sodipodi:nodetypes="ccccccccccccccccccccccc" />
    <path
       sodipodi:nodetypes="ccccccccccccccccccccccc"
       id="path2822"
       d="m 105.60374,124.03485 v -0.0236 l 0.23623,-0.0236 0.14174,-0.14174 0.0472,-0.14174 v -0.14174 l -0.14174,-0.18899 -0.44884,-0.25986 -0.23624,-0.33073 0.0945,-0.33073 0.23624,-0.21261 0.18308,-0.10631 0.35435,-0.0886 0.40751,-0.0295 0.41341,0.059 0.28348,0.10041 0.26577,0.19489 0.28939,0.0118 0.16744,-0.0896 0.0688,-0.22344 -0.0295,-0.27173 c -0.0689,-0.065 -0.21908,-0.20656 -0.2067,-0.19489 v 0"
       style="fill:none;stroke:#000000;stroke-width:0.264583px;stroke-linecap:butt;stroke-linejoin:miter;stroke-opacity:1" />
    <ellipse
       ry="0.57877821"
       rx="1.1221189"
       cy="122.47964"
       cx="97.71579"
       id="path847"
       style="fill:none;stroke:#000000;stroke-width:0.264999" />
    <ellipse
       style="fill:none;stroke:#000000;stroke-width:0.264999"
       id="ellipse851"
       cx="106.43546"
       cy="122.7135"
       rx="1.1221189"
       ry="0.57877821" />
    <path
       sodipodi:nodetypes="ccccccccccccccccccccc"
       id="path853"
       d="m 96.283845,129.69254 0.400905,-0.66818 0.334086,-0.53454 0.601358,-0.0668 0.534538,0.53453 0.467723,0.86863 0.734991,0.40091 0.668174,-0.20046 0.53454,-0.66817 0.33409,-0.60136 0.26727,-0.20045 0.8018,-0.0668 0.63477,0.3675 0.26728,0.63477 0.26727,0.63477 0.86862,0.10022 0.52068,-0.55947 0.13364,-0.96885 0.5818,-0.34255 0.83522,0.30067 0.20045,0.80182"
       style="fill:none;stroke:#000000;stroke-width:0.264583px;stroke-linecap:butt;stroke-linejoin:miter;stroke-opacity:1" />
  </g>
</svg>
