<?xml version="1.0" encoding="UTF-8" standalone="no"?>
<svg
   xmlns:dc="http://purl.org/dc/elements/1.1/"
   xmlns:cc="http://creativecommons.org/ns#"
   xmlns:rdf="http://www.w3.org/1999/02/22-rdf-syntax-ns#"
   xmlns:svg="http://www.w3.org/2000/svg"
   xmlns="http://www.w3.org/2000/svg"
   xmlns:sodipodi="http://sodipodi.sourceforge.net/DTD/sodipodi-0.dtd"
   xmlns:inkscape="http://www.inkscape.org/namespaces/inkscape"
   sodipodi:docname="ghost.svg"
   inkscape:version="1.0 (4035a4f, 2020-05-01)"
   id="svg8"
   version="1.1"
   viewBox="0 0 215.9 279.4"
   height="279.39999mm"
   width="215.89999mm">
  <defs
     id="defs2" />
  <sodipodi:namedview
     inkscape:window-maximized="0"
     inkscape:window-y="25"
     inkscape:window-x="0"
     inkscape:window-height="847"
     inkscape:window-width="1440"
     units="mm"
     showgrid="false"
     inkscape:document-rotation="0"
     inkscape:current-layer="layer1"
     inkscape:document-units="mm"
     inkscape:cy="464.33839"
     inkscape:cx="375.35991"
     inkscape:zoom="1.4"
     inkscape:pageshadow="2"
     inkscape:pageopacity="0.0"
     borderopacity="1.0"
     bordercolor="#666666"
     pagecolor="#ffffff"
     id="base" />
  <metadata
     id="metadata5">
    <rdf:RDF>
      <cc:Work
         rdf:about="">
        <dc:format>image/svg+xml</dc:format>
        <dc:type
           rdf:resource="http://purl.org/dc/dcmitype/StillImage" />
        <dc:title></dc:title>
      </cc:Work>
    </rdf:RDF>
  </metadata>
  <g
     id="layer1"
     inkscape:groupmode="layer"
     inkscape:label="Layer 1">
    <path
       sodipodi:nodetypes="cccccccccccccccccccccccc"
       id="path2748"
       d="m 87.263501,120.93946 -0.133636,3.87541 -0.53454,3.74177 -0.668174,3.47451 -1.202711,5.87992 -1.33635,5.47903 -1.336346,4.27631 -1.603616,2.93997 -1.33635,1.73725 0.400905,0.66817 1.238593,0.21105 1.317172,-0.49502 1.319642,-1.05237 0.935445,-0.26727 1.069078,1.46998 1.469983,0.80181 2.00452,0.13363 2.138157,-1.33635 0.53454,-0.53454 0.935442,-0.53453 1.102487,-0.13363 0.766209,0.20623 0.542864,0.63582 0.551334,0.95865"
       style="fill:none;stroke:#000000;stroke-width:0.264583px;stroke-linecap:butt;stroke-linejoin:miter;stroke-opacity:1" />
    <path
       sodipodi:nodetypes="cccccccc"
       id="path2750"
       d="m 112.78774,121.20673 -0.26727,6.01356 -0.53454,4.81086 -0.4009,3.74177 -0.80181,3.34087 -1.06908,4.27631 -1.20271,3.60814 -1.06908,2.27179"
       style="fill:none;stroke:#000000;stroke-width:0.264583px;stroke-linecap:butt;stroke-linejoin:miter;stroke-opacity:1" />
    <path
       sodipodi:nodetypes="ccccccccc"
       id="path2752"
       d="m 107.44235,149.27003 -1.26953,2.20497 -1.00226,1.33635 -0.73499,0.53454 -0.7863,0.39753 -0.99708,-0.26527 -0.71388,-0.6007 -0.7856,-0.82207 -0.59255,-0.17949"
       style="fill:none;stroke:#000000;stroke-width:0.264583px;stroke-linecap:butt;stroke-linejoin:miter;stroke-opacity:1" />
    <path
       sodipodi:nodetypes="cccccccccc"
       id="path2754"
       d="m 95.438149,153.07526 0.655317,0.5811 0.949284,0.33812 0.800129,-0.0783 0.661458,-0.21262 0.542646,-0.49945 0.389641,-0.44765 0.622686,-0.68997 0.50085,-0.19064 v 0"
       style="fill:none;stroke:#000000;stroke-width:0.264583px;stroke-linecap:butt;stroke-linejoin:miter;stroke-opacity:1" />
    <path
       id="path2756"
       d="m 87.263501,120.93946 0.06681,-1.40316 0.467722,-1.20272 0.668174,-1.13589 0.53454,-0.66818 0.668174,-0.66817 0.668173,-0.66817 0.801809,-0.53454 1.202711,-0.735 1.202714,-0.46772 1.536801,-0.53454 1.670433,-0.4009 1.870888,-0.26727 h 1.73725 l 1.80407,0.13364 1.33634,0.20045 1.73727,0.4009 1.46998,0.60136 1.60361,0.73499 1.40317,1.06908 1.20271,1.20271 0.86863,1.20271 0.60136,1.33635 0.13363,0.66817 0.26726,1.40317 v 0"
       style="fill:none;stroke:#000000;stroke-width:0.264583px;stroke-linecap:butt;stroke-linejoin:miter;stroke-opacity:1" />
    <path
       sodipodi:nodetypes="ccccccccccccccccccccccc"
       id="path2770"
       d="m 96.950889,123.8344 v -0.0236 l 0.236235,-0.0236 0.14174,-0.14174 0.04725,-0.14174 v -0.14174 l -0.14174,-0.18899 -0.448845,-0.25986 -0.236236,-0.33073 0.09449,-0.33073 0.236236,-0.21261 0.183082,-0.10631 0.354352,-0.0886 0.407506,-0.0295 0.413412,0.059 0.283481,0.10041 0.265765,0.19489 0.289388,0.0118 0.167447,-0.0896 0.06879,-0.22344 -0.02953,-0.27173 c -0.0689,-0.065 -0.219083,-0.20656 -0.206706,-0.19489 v 0"
       style="fill:none;stroke:#000000;stroke-width:0.264583px;stroke-linecap:butt;stroke-linejoin:miter;stroke-opacity:1" />
    <path
       id="path2772"
       d="m 96.950889,123.8108 -0.661456,0.0473 -0.401598,0.0472 -0.59059,-0.0472 -0.377975,-0.0472 -0.448847,-0.0945 -0.543341,-0.16536 -0.448847,-0.23623 -0.401598,-0.30711 -0.307107,-0.33073 -0.14174,-0.35435 v -0.4016 l 0.236233,-0.42522 0.18899,-0.23624 0.425222,-0.23624 0.330729,-0.18898 0.377976,-0.0945 0.59059,-0.16536 0.590587,-0.0709 0.496093,-0.0709 0.519719,0.0236 0.68508,0.0472 0.472472,0.14174 0.425222,0.11812 0.425223,0.21261 0.496091,0.30708 0.18899,0.11812"
       style="fill:none;stroke:#000000;stroke-width:0.264583px;stroke-linecap:butt;stroke-linejoin:miter;stroke-opacity:1" />
    <path
       style="fill:none;stroke:#000000;stroke-width:0.264583px;stroke-linecap:butt;stroke-linejoin:miter;stroke-opacity:1"
       d="m 105.60374,124.03485 v -0.0236 l 0.23623,-0.0236 0.14174,-0.14174 0.0472,-0.14174 v -0.14174 l -0.14174,-0.18899 -0.44884,-0.25986 -0.23624,-0.33073 0.0945,-0.33073 0.23624,-0.21261 0.18308,-0.10631 0.35435,-0.0886 0.40751,-0.0295 0.41341,0.059 0.28348,0.10041 0.26577,0.19489 0.28939,0.0118 0.16744,-0.0896 0.0688,-0.22344 -0.0295,-0.27173 c -0.0689,-0.065 -0.21908,-0.20656 -0.2067,-0.19489 v 0"
       id="path2822"
       sodipodi:nodetypes="ccccccccccccccccccccccc" />
    <path
       style="fill:none;stroke:#000000;stroke-width:0.264583px;stroke-linecap:butt;stroke-linejoin:miter;stroke-opacity:1"
       d="m 105.60374,124.01125 -0.66146,0.0473 -0.40159,0.0472 -0.59059,-0.0472 -0.37798,-0.0472 -0.44885,-0.0945 -0.54334,-0.16536 -0.44884,-0.23623 -0.4016,-0.30711 -0.30711,-0.33073 -0.14174,-0.35435 v -0.4016 l 0.23623,-0.42522 0.18899,-0.23624 0.42523,-0.23624 0.33072,-0.18898 0.37798,-0.0945 0.59059,-0.16536 0.59059,-0.0709 0.49609,-0.0709 0.51972,0.0236 0.68508,0.0472 0.47247,0.14174 0.42522,0.11812 0.42523,0.21261 0.49609,0.30708 0.18899,0.11812"
       id="path2824" />
  </g>
</svg>
