%TF.GenerationSoftware,KiCad,Pcbnew,(5.1.9-0-10_14)*%
%TF.CreationDate,2021-10-18T11:35:41-07:00*%
%TF.ProjectId,cat_pcb_2a,6361745f-7063-4625-9f32-612e6b696361,rev?*%
%TF.SameCoordinates,Original*%
%TF.FileFunction,Legend,Bot*%
%TF.FilePolarity,Positive*%
%FSLAX46Y46*%
G04 Gerber Fmt 4.6, Leading zero omitted, Abs format (unit mm)*
G04 Created by KiCad (PCBNEW (5.1.9-0-10_14)) date 2021-10-18 11:35:41*
%MOMM*%
%LPD*%
G01*
G04 APERTURE LIST*
%ADD10C,0.150000*%
%ADD11C,0.120000*%
G04 APERTURE END LIST*
D10*
X154098000Y-106751428D02*
X153336095Y-106751428D01*
X153717047Y-107132380D02*
X153717047Y-106370476D01*
X152098000Y-107132380D02*
X152098000Y-106132380D01*
X151717047Y-106132380D01*
X151621809Y-106180000D01*
X151574190Y-106227619D01*
X151526571Y-106322857D01*
X151526571Y-106465714D01*
X151574190Y-106560952D01*
X151621809Y-106608571D01*
X151717047Y-106656190D01*
X152098000Y-106656190D01*
X150907523Y-106132380D02*
X150717047Y-106132380D01*
X150621809Y-106180000D01*
X150526571Y-106275238D01*
X150478952Y-106465714D01*
X150478952Y-106799047D01*
X150526571Y-106989523D01*
X150621809Y-107084761D01*
X150717047Y-107132380D01*
X150907523Y-107132380D01*
X151002761Y-107084761D01*
X151098000Y-106989523D01*
X151145619Y-106799047D01*
X151145619Y-106465714D01*
X151098000Y-106275238D01*
X151002761Y-106180000D01*
X150907523Y-106132380D01*
X150098000Y-107084761D02*
X149955142Y-107132380D01*
X149717047Y-107132380D01*
X149621809Y-107084761D01*
X149574190Y-107037142D01*
X149526571Y-106941904D01*
X149526571Y-106846666D01*
X149574190Y-106751428D01*
X149621809Y-106703809D01*
X149717047Y-106656190D01*
X149907523Y-106608571D01*
X150002761Y-106560952D01*
X150050380Y-106513333D01*
X150098000Y-106418095D01*
X150098000Y-106322857D01*
X150050380Y-106227619D01*
X150002761Y-106180000D01*
X149907523Y-106132380D01*
X149669428Y-106132380D01*
X149526571Y-106180000D01*
X149098000Y-107132380D02*
X149098000Y-106132380D01*
X148764666Y-106132380D02*
X148193238Y-106132380D01*
X148478952Y-107132380D02*
X148478952Y-106132380D01*
X147859904Y-107132380D02*
X147859904Y-106132380D01*
X147526571Y-106132380D02*
X147193238Y-107132380D01*
X146859904Y-106132380D01*
X146526571Y-106608571D02*
X146193238Y-106608571D01*
X146050380Y-107132380D02*
X146526571Y-107132380D01*
X146526571Y-106132380D01*
X146050380Y-106132380D01*
X144859904Y-106751428D02*
X144098000Y-106751428D01*
X144478952Y-107132380D02*
X144478952Y-106370476D01*
D11*
%TO.C,BAT1*%
X137689600Y-114790347D02*
X137689600Y-108135547D01*
X160346400Y-114790347D02*
X137689600Y-114790347D01*
X160346400Y-108135547D02*
X160346400Y-114790347D01*
X137689600Y-108135547D02*
X160346400Y-108135547D01*
%TO.C,R2*%
X144753000Y-76323564D02*
X144753000Y-75869436D01*
X143283000Y-76323564D02*
X143283000Y-75869436D01*
%TO.C,R1*%
X139927000Y-76323564D02*
X139927000Y-75869436D01*
X138457000Y-76323564D02*
X138457000Y-75869436D01*
%TO.C,D2*%
X143169200Y-65244000D02*
X143169200Y-65088000D01*
X143169200Y-62928000D02*
X143169200Y-62772000D01*
X145770330Y-62928163D02*
G75*
G03*
X143688239Y-62928000I-1041130J-1079837D01*
G01*
X145770330Y-65087837D02*
G75*
G02*
X143688239Y-65088000I-1041130J1079837D01*
G01*
X146401535Y-62929392D02*
G75*
G03*
X143169200Y-62772484I-1672335J-1078608D01*
G01*
X146401535Y-65086608D02*
G75*
G02*
X143169200Y-65243516I-1672335J1078608D01*
G01*
%TO.C,D1*%
X134609400Y-65345600D02*
X134609400Y-65189600D01*
X134609400Y-63029600D02*
X134609400Y-62873600D01*
X137210530Y-63029763D02*
G75*
G03*
X135128439Y-63029600I-1041130J-1079837D01*
G01*
X137210530Y-65189437D02*
G75*
G02*
X135128439Y-65189600I-1041130J1079837D01*
G01*
X137841735Y-63030992D02*
G75*
G03*
X134609400Y-62874084I-1672335J-1078608D01*
G01*
X137841735Y-65188208D02*
G75*
G02*
X134609400Y-65345116I-1672335J1078608D01*
G01*
%TO.C,BAT1*%
D10*
X136342285Y-110672571D02*
X136199428Y-110720190D01*
X136151809Y-110767809D01*
X136104190Y-110863047D01*
X136104190Y-111005904D01*
X136151809Y-111101142D01*
X136199428Y-111148761D01*
X136294666Y-111196380D01*
X136675619Y-111196380D01*
X136675619Y-110196380D01*
X136342285Y-110196380D01*
X136247047Y-110244000D01*
X136199428Y-110291619D01*
X136151809Y-110386857D01*
X136151809Y-110482095D01*
X136199428Y-110577333D01*
X136247047Y-110624952D01*
X136342285Y-110672571D01*
X136675619Y-110672571D01*
X135723238Y-110910666D02*
X135247047Y-110910666D01*
X135818476Y-111196380D02*
X135485142Y-110196380D01*
X135151809Y-111196380D01*
X134961333Y-110196380D02*
X134389904Y-110196380D01*
X134675619Y-111196380D02*
X134675619Y-110196380D01*
X133532761Y-111196380D02*
X134104190Y-111196380D01*
X133818476Y-111196380D02*
X133818476Y-110196380D01*
X133913714Y-110339238D01*
X134008952Y-110434476D01*
X134104190Y-110482095D01*
X144018000Y-109180380D02*
X144018000Y-109418476D01*
X144256095Y-109323238D02*
X144018000Y-109418476D01*
X143779904Y-109323238D01*
X144160857Y-109608952D02*
X144018000Y-109418476D01*
X143875142Y-109608952D01*
%TO.C,SW1*%
X164480761Y-101423666D02*
X164528380Y-101566523D01*
X164528380Y-101804619D01*
X164480761Y-101899857D01*
X164433142Y-101947476D01*
X164337904Y-101995095D01*
X164242666Y-101995095D01*
X164147428Y-101947476D01*
X164099809Y-101899857D01*
X164052190Y-101804619D01*
X164004571Y-101614142D01*
X163956952Y-101518904D01*
X163909333Y-101471285D01*
X163814095Y-101423666D01*
X163718857Y-101423666D01*
X163623619Y-101471285D01*
X163576000Y-101518904D01*
X163528380Y-101614142D01*
X163528380Y-101852238D01*
X163576000Y-101995095D01*
X163528380Y-102328428D02*
X164528380Y-102566523D01*
X163814095Y-102757000D01*
X164528380Y-102947476D01*
X163528380Y-103185571D01*
X164528380Y-104090333D02*
X164528380Y-103518904D01*
X164528380Y-103804619D02*
X163528380Y-103804619D01*
X163671238Y-103709380D01*
X163766476Y-103614142D01*
X163814095Y-103518904D01*
%TO.C,R2*%
X146216666Y-74620380D02*
X146550000Y-74144190D01*
X146788095Y-74620380D02*
X146788095Y-73620380D01*
X146407142Y-73620380D01*
X146311904Y-73668000D01*
X146264285Y-73715619D01*
X146216666Y-73810857D01*
X146216666Y-73953714D01*
X146264285Y-74048952D01*
X146311904Y-74096571D01*
X146407142Y-74144190D01*
X146788095Y-74144190D01*
X145835714Y-73715619D02*
X145788095Y-73668000D01*
X145692857Y-73620380D01*
X145454761Y-73620380D01*
X145359523Y-73668000D01*
X145311904Y-73715619D01*
X145264285Y-73810857D01*
X145264285Y-73906095D01*
X145311904Y-74048952D01*
X145883333Y-74620380D01*
X145264285Y-74620380D01*
%TO.C,R1*%
X137326666Y-74874380D02*
X137660000Y-74398190D01*
X137898095Y-74874380D02*
X137898095Y-73874380D01*
X137517142Y-73874380D01*
X137421904Y-73922000D01*
X137374285Y-73969619D01*
X137326666Y-74064857D01*
X137326666Y-74207714D01*
X137374285Y-74302952D01*
X137421904Y-74350571D01*
X137517142Y-74398190D01*
X137898095Y-74398190D01*
X136374285Y-74874380D02*
X136945714Y-74874380D01*
X136660000Y-74874380D02*
X136660000Y-73874380D01*
X136755238Y-74017238D01*
X136850476Y-74112476D01*
X136945714Y-74160095D01*
%TO.C,D2*%
X145467295Y-67420380D02*
X145467295Y-66420380D01*
X145229200Y-66420380D01*
X145086342Y-66468000D01*
X144991104Y-66563238D01*
X144943485Y-66658476D01*
X144895866Y-66848952D01*
X144895866Y-66991809D01*
X144943485Y-67182285D01*
X144991104Y-67277523D01*
X145086342Y-67372761D01*
X145229200Y-67420380D01*
X145467295Y-67420380D01*
X144514914Y-66515619D02*
X144467295Y-66468000D01*
X144372057Y-66420380D01*
X144133961Y-66420380D01*
X144038723Y-66468000D01*
X143991104Y-66515619D01*
X143943485Y-66610857D01*
X143943485Y-66706095D01*
X143991104Y-66848952D01*
X144562533Y-67420380D01*
X143943485Y-67420380D01*
%TO.C,D1*%
X136907495Y-67521980D02*
X136907495Y-66521980D01*
X136669400Y-66521980D01*
X136526542Y-66569600D01*
X136431304Y-66664838D01*
X136383685Y-66760076D01*
X136336066Y-66950552D01*
X136336066Y-67093409D01*
X136383685Y-67283885D01*
X136431304Y-67379123D01*
X136526542Y-67474361D01*
X136669400Y-67521980D01*
X136907495Y-67521980D01*
X135383685Y-67521980D02*
X135955114Y-67521980D01*
X135669400Y-67521980D02*
X135669400Y-66521980D01*
X135764638Y-66664838D01*
X135859876Y-66760076D01*
X135955114Y-66807695D01*
%TD*%
M02*
