%TF.GenerationSoftware,KiCad,Pcbnew,(5.1.9-0-10_14)*%
%TF.CreationDate,2021-10-18T11:35:41-07:00*%
%TF.ProjectId,cat_pcb_2a,6361745f-7063-4625-9f32-612e6b696361,rev?*%
%TF.SameCoordinates,Original*%
%TF.FileFunction,Copper,L2,Bot*%
%TF.FilePolarity,Positive*%
%FSLAX46Y46*%
G04 Gerber Fmt 4.6, Leading zero omitted, Abs format (unit mm)*
G04 Created by KiCad (PCBNEW (5.1.9-0-10_14)) date 2021-10-18 11:35:41*
%MOMM*%
%LPD*%
G01*
G04 APERTURE LIST*
%TA.AperFunction,ComponentPad*%
%ADD10C,1.524000*%
%TD*%
%TA.AperFunction,SMDPad,CuDef*%
%ADD11R,1.900000X1.000000*%
%TD*%
%TA.AperFunction,ComponentPad*%
%ADD12C,1.800000*%
%TD*%
%TA.AperFunction,ComponentPad*%
%ADD13R,1.800000X1.800000*%
%TD*%
%TA.AperFunction,Conductor*%
%ADD14C,0.250000*%
%TD*%
G04 APERTURE END LIST*
D10*
%TO.P,BAT1,POS2*%
%TO.N,+BATT*%
X154018000Y-109728000D03*
%TO.P,BAT1,NEG*%
%TO.N,GND*%
X149018000Y-113198001D03*
%TO.P,BAT1,POS1*%
%TO.N,+BATT*%
X144018000Y-109728000D03*
%TD*%
%TO.P,SW1,*%
%TO.N,*%
X165862000Y-99632000D03*
X165862000Y-105882000D03*
D11*
%TO.P,SW1,1*%
%TO.N,Net-(R1-Pad1)*%
X161812000Y-99632000D03*
%TO.P,SW1,2*%
%TO.N,Net-(SW1-Pad2)*%
X161798000Y-101632000D03*
%TO.P,SW1,3*%
%TO.N,+BATT*%
X161798000Y-103632000D03*
%TD*%
%TO.P,R2,2*%
%TO.N,Net-(D2-Pad2)*%
%TA.AperFunction,SMDPad,CuDef*%
G36*
G01*
X144468002Y-75696500D02*
X143567998Y-75696500D01*
G75*
G02*
X143318000Y-75446502I0J249998D01*
G01*
X143318000Y-74921498D01*
G75*
G02*
X143567998Y-74671500I249998J0D01*
G01*
X144468002Y-74671500D01*
G75*
G02*
X144718000Y-74921498I0J-249998D01*
G01*
X144718000Y-75446502D01*
G75*
G02*
X144468002Y-75696500I-249998J0D01*
G01*
G37*
%TD.AperFunction*%
%TO.P,R2,1*%
%TO.N,Net-(R1-Pad1)*%
%TA.AperFunction,SMDPad,CuDef*%
G36*
G01*
X144468002Y-77521500D02*
X143567998Y-77521500D01*
G75*
G02*
X143318000Y-77271502I0J249998D01*
G01*
X143318000Y-76746498D01*
G75*
G02*
X143567998Y-76496500I249998J0D01*
G01*
X144468002Y-76496500D01*
G75*
G02*
X144718000Y-76746498I0J-249998D01*
G01*
X144718000Y-77271502D01*
G75*
G02*
X144468002Y-77521500I-249998J0D01*
G01*
G37*
%TD.AperFunction*%
%TD*%
%TO.P,R1,2*%
%TO.N,Net-(D1-Pad2)*%
%TA.AperFunction,SMDPad,CuDef*%
G36*
G01*
X139642002Y-75696500D02*
X138741998Y-75696500D01*
G75*
G02*
X138492000Y-75446502I0J249998D01*
G01*
X138492000Y-74921498D01*
G75*
G02*
X138741998Y-74671500I249998J0D01*
G01*
X139642002Y-74671500D01*
G75*
G02*
X139892000Y-74921498I0J-249998D01*
G01*
X139892000Y-75446502D01*
G75*
G02*
X139642002Y-75696500I-249998J0D01*
G01*
G37*
%TD.AperFunction*%
%TO.P,R1,1*%
%TO.N,Net-(R1-Pad1)*%
%TA.AperFunction,SMDPad,CuDef*%
G36*
G01*
X139642002Y-77521500D02*
X138741998Y-77521500D01*
G75*
G02*
X138492000Y-77271502I0J249998D01*
G01*
X138492000Y-76746498D01*
G75*
G02*
X138741998Y-76496500I249998J0D01*
G01*
X139642002Y-76496500D01*
G75*
G02*
X139892000Y-76746498I0J-249998D01*
G01*
X139892000Y-77271502D01*
G75*
G02*
X139642002Y-77521500I-249998J0D01*
G01*
G37*
%TD.AperFunction*%
%TD*%
D12*
%TO.P,D2,2*%
%TO.N,Net-(D2-Pad2)*%
X145999200Y-64008000D03*
D13*
%TO.P,D2,1*%
%TO.N,GND*%
X143459200Y-64008000D03*
%TD*%
D12*
%TO.P,D1,2*%
%TO.N,Net-(D1-Pad2)*%
X137439400Y-64109600D03*
D13*
%TO.P,D1,1*%
%TO.N,GND*%
X134899400Y-64109600D03*
%TD*%
D14*
%TO.N,+BATT*%
X144018000Y-109728000D02*
X154018000Y-109728000D01*
X158242000Y-103632000D02*
X161798000Y-103632000D01*
X154018000Y-107856000D02*
X158242000Y-103632000D01*
X154018000Y-109728000D02*
X154018000Y-107856000D01*
%TO.N,GND*%
X136906000Y-108204000D02*
X141900001Y-113198001D01*
X141900001Y-113198001D02*
X149018000Y-113198001D01*
X136906000Y-74422000D02*
X136906000Y-108204000D01*
X134962900Y-72478900D02*
X136906000Y-74422000D01*
X134874000Y-72390000D02*
X134962900Y-72478900D01*
X134848600Y-72364600D02*
X134962900Y-72478900D01*
X134848600Y-64160400D02*
X134848600Y-72364600D01*
X134899400Y-64109600D02*
X134848600Y-64160400D01*
X142748000Y-61468000D02*
X143459200Y-62179200D01*
X135636000Y-61468000D02*
X142748000Y-61468000D01*
X143459200Y-62179200D02*
X143459200Y-64008000D01*
X134899400Y-62204600D02*
X135636000Y-61468000D01*
X134899400Y-64109600D02*
X134899400Y-62204600D01*
%TO.N,Net-(D1-Pad2)*%
X137414000Y-64135000D02*
X137439400Y-64109600D01*
X139192000Y-73406000D02*
X137414000Y-71628000D01*
X137414000Y-71628000D02*
X137414000Y-64135000D01*
X139192000Y-75184000D02*
X139192000Y-73406000D01*
%TO.N,Net-(D2-Pad2)*%
X144018000Y-73660000D02*
X144018000Y-75184000D01*
X145796000Y-71882000D02*
X144018000Y-73660000D01*
X146050000Y-71628000D02*
X145796000Y-71882000D01*
X146050000Y-64058800D02*
X146050000Y-71628000D01*
X145999200Y-64008000D02*
X146050000Y-64058800D01*
%TO.N,Net-(R1-Pad1)*%
X139192000Y-77009000D02*
X144018000Y-77009000D01*
X144018000Y-77009000D02*
X144018000Y-94488000D01*
X149162000Y-99632000D02*
X161812000Y-99632000D01*
X144018000Y-94488000D02*
X149162000Y-99632000D01*
%TD*%
M02*
