%TF.GenerationSoftware,KiCad,Pcbnew,(5.1.9-0-10_14)*%
%TF.CreationDate,2021-10-18T11:35:41-07:00*%
%TF.ProjectId,cat_pcb_2a,6361745f-7063-4625-9f32-612e6b696361,rev?*%
%TF.SameCoordinates,Original*%
%TF.FileFunction,Other,Fab,Bot*%
%FSLAX46Y46*%
G04 Gerber Fmt 4.6, Leading zero omitted, Abs format (unit mm)*
G04 Created by KiCad (PCBNEW (5.1.9-0-10_14)) date 2021-10-18 11:35:41*
%MOMM*%
%LPD*%
G01*
G04 APERTURE LIST*
%ADD10C,0.100000*%
%ADD11C,0.150000*%
%ADD12C,0.080000*%
G04 APERTURE END LIST*
D10*
%TO.C,BAT1*%
X144399000Y-111633000D02*
G75*
G03*
X144399000Y-111633000I-381000J0D01*
G01*
X137816600Y-114663347D02*
X137816600Y-108262547D01*
X160219400Y-114663347D02*
X137816600Y-114663347D01*
X160219400Y-108262547D02*
X160219400Y-114663347D01*
X137816600Y-108262547D02*
X160219400Y-108262547D01*
%TO.C,R2*%
X143393000Y-77096500D02*
X144643000Y-77096500D01*
X144643000Y-77096500D02*
X144643000Y-75096500D01*
X144643000Y-75096500D02*
X143393000Y-75096500D01*
X143393000Y-75096500D02*
X143393000Y-77096500D01*
%TO.C,R1*%
X138567000Y-77096500D02*
X139817000Y-77096500D01*
X139817000Y-77096500D02*
X139817000Y-75096500D01*
X139817000Y-75096500D02*
X138567000Y-75096500D01*
X138567000Y-75096500D02*
X138567000Y-77096500D01*
%TO.C,D2*%
X146229200Y-64008000D02*
G75*
G03*
X146229200Y-64008000I-1500000J0D01*
G01*
X143229200Y-65174190D02*
X143229200Y-62841810D01*
X143228645Y-62842524D02*
G75*
G02*
X143229200Y-65174190I1500555J-1165476D01*
G01*
%TO.C,D1*%
X137669400Y-64109600D02*
G75*
G03*
X137669400Y-64109600I-1500000J0D01*
G01*
X134669400Y-65275790D02*
X134669400Y-62943410D01*
X134668845Y-62944124D02*
G75*
G02*
X134669400Y-65275790I1500555J-1165476D01*
G01*
%TD*%
%TO.C,BAT1*%
D11*
X144018000Y-109180380D02*
X144018000Y-109418476D01*
X144256095Y-109323238D02*
X144018000Y-109418476D01*
X143779904Y-109323238D01*
X144160857Y-109608952D02*
X144018000Y-109418476D01*
X143875142Y-109608952D01*
%TO.C,SW1*%
X163480761Y-99280809D02*
X163528380Y-99423666D01*
X163528380Y-99661761D01*
X163480761Y-99757000D01*
X163433142Y-99804619D01*
X163337904Y-99852238D01*
X163242666Y-99852238D01*
X163147428Y-99804619D01*
X163099809Y-99757000D01*
X163052190Y-99661761D01*
X163004571Y-99471285D01*
X162956952Y-99376047D01*
X162909333Y-99328428D01*
X162814095Y-99280809D01*
X162718857Y-99280809D01*
X162623619Y-99328428D01*
X162576000Y-99376047D01*
X162528380Y-99471285D01*
X162528380Y-99709380D01*
X162576000Y-99852238D01*
X163528380Y-100280809D02*
X162528380Y-100280809D01*
X163242666Y-100614142D01*
X162528380Y-100947476D01*
X163528380Y-100947476D01*
X162528380Y-101280809D02*
X162528380Y-101852238D01*
X163528380Y-101566523D02*
X162528380Y-101566523D01*
X163623619Y-101947476D02*
X163623619Y-102709380D01*
X163480761Y-102899857D02*
X163528380Y-103042714D01*
X163528380Y-103280809D01*
X163480761Y-103376047D01*
X163433142Y-103423666D01*
X163337904Y-103471285D01*
X163242666Y-103471285D01*
X163147428Y-103423666D01*
X163099809Y-103376047D01*
X163052190Y-103280809D01*
X163004571Y-103090333D01*
X162956952Y-102995095D01*
X162909333Y-102947476D01*
X162814095Y-102899857D01*
X162718857Y-102899857D01*
X162623619Y-102947476D01*
X162576000Y-102995095D01*
X162528380Y-103090333D01*
X162528380Y-103328428D01*
X162576000Y-103471285D01*
X163528380Y-103899857D02*
X162528380Y-103899857D01*
X162528380Y-104280809D01*
X162576000Y-104376047D01*
X162623619Y-104423666D01*
X162718857Y-104471285D01*
X162861714Y-104471285D01*
X162956952Y-104423666D01*
X163004571Y-104376047D01*
X163052190Y-104280809D01*
X163052190Y-103899857D01*
X163528380Y-104899857D02*
X162528380Y-104899857D01*
X162528380Y-105137952D01*
X162576000Y-105280809D01*
X162671238Y-105376047D01*
X162766476Y-105423666D01*
X162956952Y-105471285D01*
X163099809Y-105471285D01*
X163290285Y-105423666D01*
X163385523Y-105376047D01*
X163480761Y-105280809D01*
X163528380Y-105137952D01*
X163528380Y-104899857D01*
X162528380Y-105757000D02*
X162528380Y-106328428D01*
X163528380Y-106042714D02*
X162528380Y-106042714D01*
%TO.C,R2*%
D12*
X144244190Y-76013166D02*
X144006095Y-75846500D01*
X144244190Y-75727452D02*
X143744190Y-75727452D01*
X143744190Y-75917928D01*
X143768000Y-75965547D01*
X143791809Y-75989357D01*
X143839428Y-76013166D01*
X143910857Y-76013166D01*
X143958476Y-75989357D01*
X143982285Y-75965547D01*
X144006095Y-75917928D01*
X144006095Y-75727452D01*
X143791809Y-76203642D02*
X143768000Y-76227452D01*
X143744190Y-76275071D01*
X143744190Y-76394119D01*
X143768000Y-76441738D01*
X143791809Y-76465547D01*
X143839428Y-76489357D01*
X143887047Y-76489357D01*
X143958476Y-76465547D01*
X144244190Y-76179833D01*
X144244190Y-76489357D01*
%TO.C,R1*%
D11*
X145866857Y-71921714D02*
X145866857Y-72588380D01*
X146104952Y-71540761D02*
X146343047Y-72255047D01*
X145724000Y-72255047D01*
X145438285Y-71588380D02*
X144771619Y-71588380D01*
X145200190Y-72588380D01*
X143438285Y-71588380D02*
X143247809Y-71588380D01*
X143152571Y-71636000D01*
X143057333Y-71731238D01*
X143009714Y-71921714D01*
X143009714Y-72255047D01*
X143057333Y-72445523D01*
X143152571Y-72540761D01*
X143247809Y-72588380D01*
X143438285Y-72588380D01*
X143533523Y-72540761D01*
X143628761Y-72445523D01*
X143676380Y-72255047D01*
X143676380Y-71921714D01*
X143628761Y-71731238D01*
X143533523Y-71636000D01*
X143438285Y-71588380D01*
X142581142Y-72588380D02*
X142581142Y-71588380D01*
X142152571Y-72588380D02*
X142152571Y-72064571D01*
X142200190Y-71969333D01*
X142295428Y-71921714D01*
X142438285Y-71921714D01*
X142533523Y-71969333D01*
X142581142Y-72016952D01*
X141676380Y-72588380D02*
X141676380Y-71921714D01*
X141676380Y-72016952D02*
X141628761Y-71969333D01*
X141533523Y-71921714D01*
X141390666Y-71921714D01*
X141295428Y-71969333D01*
X141247809Y-72064571D01*
X141247809Y-72588380D01*
X141247809Y-72064571D02*
X141200190Y-71969333D01*
X141104952Y-71921714D01*
X140962095Y-71921714D01*
X140866857Y-71969333D01*
X140819238Y-72064571D01*
X140819238Y-72588380D01*
X140390666Y-72540761D02*
X140295428Y-72588380D01*
X140104952Y-72588380D01*
X140009714Y-72540761D01*
X139962095Y-72445523D01*
X139962095Y-72397904D01*
X140009714Y-72302666D01*
X140104952Y-72255047D01*
X140247809Y-72255047D01*
X140343047Y-72207428D01*
X140390666Y-72112190D01*
X140390666Y-72064571D01*
X140343047Y-71969333D01*
X140247809Y-71921714D01*
X140104952Y-71921714D01*
X140009714Y-71969333D01*
X138485904Y-72969333D02*
X138533523Y-72921714D01*
X138628761Y-72778857D01*
X138676380Y-72683619D01*
X138724000Y-72540761D01*
X138771619Y-72302666D01*
X138771619Y-72112190D01*
X138724000Y-71874095D01*
X138676380Y-71731238D01*
X138628761Y-71636000D01*
X138533523Y-71493142D01*
X138485904Y-71445523D01*
X138200190Y-72588380D02*
X137676380Y-71921714D01*
X138200190Y-71921714D02*
X137676380Y-72588380D01*
X137343047Y-71683619D02*
X137295428Y-71636000D01*
X137200190Y-71588380D01*
X136962095Y-71588380D01*
X136866857Y-71636000D01*
X136819238Y-71683619D01*
X136771619Y-71778857D01*
X136771619Y-71874095D01*
X136819238Y-72016952D01*
X137390666Y-72588380D01*
X136771619Y-72588380D01*
X136438285Y-72969333D02*
X136390666Y-72921714D01*
X136295428Y-72778857D01*
X136247809Y-72683619D01*
X136200190Y-72540761D01*
X136152571Y-72302666D01*
X136152571Y-72112190D01*
X136200190Y-71874095D01*
X136247809Y-71731238D01*
X136295428Y-71636000D01*
X136390666Y-71493142D01*
X136438285Y-71445523D01*
D12*
X139418190Y-76013166D02*
X139180095Y-75846500D01*
X139418190Y-75727452D02*
X138918190Y-75727452D01*
X138918190Y-75917928D01*
X138942000Y-75965547D01*
X138965809Y-75989357D01*
X139013428Y-76013166D01*
X139084857Y-76013166D01*
X139132476Y-75989357D01*
X139156285Y-75965547D01*
X139180095Y-75917928D01*
X139180095Y-75727452D01*
X139418190Y-76489357D02*
X139418190Y-76203642D01*
X139418190Y-76346500D02*
X138918190Y-76346500D01*
X138989619Y-76298880D01*
X139037238Y-76251261D01*
X139061047Y-76203642D01*
%TD*%
M02*
