%TF.GenerationSoftware,KiCad,Pcbnew,(5.1.9-0-10_14)*%
%TF.CreationDate,2021-10-18T12:15:18-07:00*%
%TF.ProjectId,ghost_pcb_2,67686f73-745f-4706-9362-5f322e6b6963,rev?*%
%TF.SameCoordinates,Original*%
%TF.FileFunction,Copper,L2,Bot*%
%TF.FilePolarity,Positive*%
%FSLAX46Y46*%
G04 Gerber Fmt 4.6, Leading zero omitted, Abs format (unit mm)*
G04 Created by KiCad (PCBNEW (5.1.9-0-10_14)) date 2021-10-18 12:15:18*
%MOMM*%
%LPD*%
G01*
G04 APERTURE LIST*
%TA.AperFunction,ComponentPad*%
%ADD10C,1.524000*%
%TD*%
%TA.AperFunction,SMDPad,CuDef*%
%ADD11R,1.900000X1.000000*%
%TD*%
%TA.AperFunction,ComponentPad*%
%ADD12C,1.800000*%
%TD*%
%TA.AperFunction,ComponentPad*%
%ADD13R,1.800000X1.800000*%
%TD*%
%TA.AperFunction,Conductor*%
%ADD14C,0.500000*%
%TD*%
G04 APERTURE END LIST*
D10*
%TO.P,SW1,*%
%TO.N,*%
X157302200Y-110971800D03*
X157302200Y-117221800D03*
D11*
%TO.P,SW1,1*%
%TO.N,Net-(R1-Pad1)*%
X153252200Y-110971800D03*
%TO.P,SW1,2*%
%TO.N,Net-(SW1-Pad2)*%
X153238200Y-112971800D03*
%TO.P,SW1,3*%
%TO.N,+BATT*%
X153238200Y-114971800D03*
%TD*%
%TO.P,R2,2*%
%TO.N,Net-(D2-Pad2)*%
%TA.AperFunction,SMDPad,CuDef*%
G36*
G01*
X133876202Y-85602500D02*
X132976198Y-85602500D01*
G75*
G02*
X132726200Y-85352502I0J249998D01*
G01*
X132726200Y-84827498D01*
G75*
G02*
X132976198Y-84577500I249998J0D01*
G01*
X133876202Y-84577500D01*
G75*
G02*
X134126200Y-84827498I0J-249998D01*
G01*
X134126200Y-85352502D01*
G75*
G02*
X133876202Y-85602500I-249998J0D01*
G01*
G37*
%TD.AperFunction*%
%TO.P,R2,1*%
%TO.N,Net-(R1-Pad1)*%
%TA.AperFunction,SMDPad,CuDef*%
G36*
G01*
X133876202Y-87427500D02*
X132976198Y-87427500D01*
G75*
G02*
X132726200Y-87177502I0J249998D01*
G01*
X132726200Y-86652498D01*
G75*
G02*
X132976198Y-86402500I249998J0D01*
G01*
X133876202Y-86402500D01*
G75*
G02*
X134126200Y-86652498I0J-249998D01*
G01*
X134126200Y-87177502D01*
G75*
G02*
X133876202Y-87427500I-249998J0D01*
G01*
G37*
%TD.AperFunction*%
%TD*%
%TO.P,R1,2*%
%TO.N,Net-(D1-Pad2)*%
%TA.AperFunction,SMDPad,CuDef*%
G36*
G01*
X150995802Y-85602500D02*
X150095798Y-85602500D01*
G75*
G02*
X149845800Y-85352502I0J249998D01*
G01*
X149845800Y-84827498D01*
G75*
G02*
X150095798Y-84577500I249998J0D01*
G01*
X150995802Y-84577500D01*
G75*
G02*
X151245800Y-84827498I0J-249998D01*
G01*
X151245800Y-85352502D01*
G75*
G02*
X150995802Y-85602500I-249998J0D01*
G01*
G37*
%TD.AperFunction*%
%TO.P,R1,1*%
%TO.N,Net-(R1-Pad1)*%
%TA.AperFunction,SMDPad,CuDef*%
G36*
G01*
X150995802Y-87427500D02*
X150095798Y-87427500D01*
G75*
G02*
X149845800Y-87177502I0J249998D01*
G01*
X149845800Y-86652498D01*
G75*
G02*
X150095798Y-86402500I249998J0D01*
G01*
X150995802Y-86402500D01*
G75*
G02*
X151245800Y-86652498I0J-249998D01*
G01*
X151245800Y-87177502D01*
G75*
G02*
X150995802Y-87427500I-249998J0D01*
G01*
G37*
%TD.AperFunction*%
%TD*%
D12*
%TO.P,D2,2*%
%TO.N,Net-(D2-Pad2)*%
X133350000Y-80772000D03*
D13*
%TO.P,D2,1*%
%TO.N,GND*%
X130810000Y-80772000D03*
%TD*%
D12*
%TO.P,D1,2*%
%TO.N,Net-(D1-Pad2)*%
X150545800Y-80797400D03*
D13*
%TO.P,D1,1*%
%TO.N,GND*%
X148005800Y-80797400D03*
%TD*%
D10*
%TO.P,BAT1,POS2*%
%TO.N,+BATT*%
X140860800Y-125831600D03*
%TO.P,BAT1,NEG*%
%TO.N,GND*%
X135860800Y-129301601D03*
%TO.P,BAT1,POS1*%
%TO.N,+BATT*%
X130860800Y-125831600D03*
%TD*%
D14*
%TO.N,+BATT*%
X130860800Y-125831600D02*
X140860800Y-125831600D01*
X140860800Y-125831600D02*
X145186400Y-125831600D01*
X145186400Y-125831600D02*
X147574000Y-123444000D01*
X147574000Y-123444000D02*
X147574000Y-116840000D01*
X149442200Y-114971800D02*
X153238200Y-114971800D01*
X147574000Y-116840000D02*
X149442200Y-114971800D01*
%TO.N,GND*%
X128793601Y-129301601D02*
X135860800Y-129301601D01*
X127000000Y-127508000D02*
X128793601Y-129301601D01*
X127000000Y-82804000D02*
X127000000Y-127508000D01*
X129032000Y-80772000D02*
X127000000Y-82804000D01*
X130810000Y-80772000D02*
X129032000Y-80772000D01*
X130810000Y-79502000D02*
X131572000Y-78740000D01*
X130810000Y-80772000D02*
X130810000Y-79502000D01*
X148005800Y-80797400D02*
X148005800Y-79425800D01*
X147320000Y-78740000D02*
X131572000Y-78740000D01*
X148005800Y-79425800D02*
X147320000Y-78740000D01*
%TO.N,Net-(D1-Pad2)*%
X150545800Y-80797400D02*
X150545800Y-85090000D01*
%TO.N,Net-(D2-Pad2)*%
X133400800Y-85064600D02*
X133426200Y-85090000D01*
X133400800Y-80822800D02*
X133400800Y-85064600D01*
%TO.N,Net-(R1-Pad1)*%
X133426200Y-86915000D02*
X150545800Y-86915000D01*
X153252200Y-110971800D02*
X151865800Y-110971800D01*
X150545800Y-109651800D02*
X150545800Y-86915000D01*
X151865800Y-110971800D02*
X150545800Y-109651800D01*
%TD*%
M02*
