%TF.GenerationSoftware,KiCad,Pcbnew,(5.1.9-0-10_14)*%
%TF.CreationDate,2021-10-18T12:15:18-07:00*%
%TF.ProjectId,ghost_pcb_2,67686f73-745f-4706-9362-5f322e6b6963,rev?*%
%TF.SameCoordinates,Original*%
%TF.FileFunction,Soldermask,Bot*%
%TF.FilePolarity,Negative*%
%FSLAX46Y46*%
G04 Gerber Fmt 4.6, Leading zero omitted, Abs format (unit mm)*
G04 Created by KiCad (PCBNEW (5.1.9-0-10_14)) date 2021-10-18 12:15:18*
%MOMM*%
%LPD*%
G01*
G04 APERTURE LIST*
%ADD10C,1.524000*%
%ADD11R,1.900000X1.000000*%
%ADD12C,1.800000*%
%ADD13R,1.800000X1.800000*%
G04 APERTURE END LIST*
D10*
%TO.C,SW1*%
X157302200Y-110971800D03*
X157302200Y-117221800D03*
D11*
X153252200Y-110971800D03*
X153238200Y-112971800D03*
X153238200Y-114971800D03*
%TD*%
%TO.C,R2*%
G36*
G01*
X133876202Y-85602500D02*
X132976198Y-85602500D01*
G75*
G02*
X132726200Y-85352502I0J249998D01*
G01*
X132726200Y-84827498D01*
G75*
G02*
X132976198Y-84577500I249998J0D01*
G01*
X133876202Y-84577500D01*
G75*
G02*
X134126200Y-84827498I0J-249998D01*
G01*
X134126200Y-85352502D01*
G75*
G02*
X133876202Y-85602500I-249998J0D01*
G01*
G37*
G36*
G01*
X133876202Y-87427500D02*
X132976198Y-87427500D01*
G75*
G02*
X132726200Y-87177502I0J249998D01*
G01*
X132726200Y-86652498D01*
G75*
G02*
X132976198Y-86402500I249998J0D01*
G01*
X133876202Y-86402500D01*
G75*
G02*
X134126200Y-86652498I0J-249998D01*
G01*
X134126200Y-87177502D01*
G75*
G02*
X133876202Y-87427500I-249998J0D01*
G01*
G37*
%TD*%
%TO.C,R1*%
G36*
G01*
X150995802Y-85602500D02*
X150095798Y-85602500D01*
G75*
G02*
X149845800Y-85352502I0J249998D01*
G01*
X149845800Y-84827498D01*
G75*
G02*
X150095798Y-84577500I249998J0D01*
G01*
X150995802Y-84577500D01*
G75*
G02*
X151245800Y-84827498I0J-249998D01*
G01*
X151245800Y-85352502D01*
G75*
G02*
X150995802Y-85602500I-249998J0D01*
G01*
G37*
G36*
G01*
X150995802Y-87427500D02*
X150095798Y-87427500D01*
G75*
G02*
X149845800Y-87177502I0J249998D01*
G01*
X149845800Y-86652498D01*
G75*
G02*
X150095798Y-86402500I249998J0D01*
G01*
X150995802Y-86402500D01*
G75*
G02*
X151245800Y-86652498I0J-249998D01*
G01*
X151245800Y-87177502D01*
G75*
G02*
X150995802Y-87427500I-249998J0D01*
G01*
G37*
%TD*%
D12*
%TO.C,D2*%
X133350000Y-80772000D03*
D13*
X130810000Y-80772000D03*
%TD*%
D12*
%TO.C,D1*%
X150545800Y-80797400D03*
D13*
X148005800Y-80797400D03*
%TD*%
D10*
%TO.C,BAT1*%
X140860800Y-125831600D03*
X135860800Y-129301601D03*
X130860800Y-125831600D03*
%TD*%
M02*
