%TF.GenerationSoftware,KiCad,Pcbnew,(5.1.9-0-10_14)*%
%TF.CreationDate,2021-10-18T11:04:09-07:00*%
%TF.ProjectId,ghost_pcb_2a,67686f73-745f-4706-9362-5f32612e6b69,rev?*%
%TF.SameCoordinates,Original*%
%TF.FileFunction,Other,Fab,Bot*%
%FSLAX46Y46*%
G04 Gerber Fmt 4.6, Leading zero omitted, Abs format (unit mm)*
G04 Created by KiCad (PCBNEW (5.1.9-0-10_14)) date 2021-10-18 11:04:09*
%MOMM*%
%LPD*%
G01*
G04 APERTURE LIST*
%ADD10C,0.100000*%
%ADD11C,0.150000*%
%ADD12C,0.080000*%
G04 APERTURE END LIST*
D10*
%TO.C,R2*%
X136865200Y-77636500D02*
X136865200Y-79636500D01*
X138115200Y-77636500D02*
X136865200Y-77636500D01*
X138115200Y-79636500D02*
X138115200Y-77636500D01*
X136865200Y-79636500D02*
X138115200Y-79636500D01*
%TO.C,R1*%
X154061000Y-77661900D02*
X154061000Y-79661900D01*
X155311000Y-77661900D02*
X154061000Y-77661900D01*
X155311000Y-79661900D02*
X155311000Y-77661900D01*
X154061000Y-79661900D02*
X155311000Y-79661900D01*
%TO.C,BAT1*%
X124659400Y-124366147D02*
X147062200Y-124366147D01*
X147062200Y-124366147D02*
X147062200Y-130766947D01*
X147062200Y-130766947D02*
X124659400Y-130766947D01*
X124659400Y-130766947D02*
X124659400Y-124366147D01*
X131241800Y-127736600D02*
G75*
G03*
X131241800Y-127736600I-381000J0D01*
G01*
%TD*%
%TO.C,SW1*%
D11*
X154920961Y-110620609D02*
X154968580Y-110763466D01*
X154968580Y-111001561D01*
X154920961Y-111096800D01*
X154873342Y-111144419D01*
X154778104Y-111192038D01*
X154682866Y-111192038D01*
X154587628Y-111144419D01*
X154540009Y-111096800D01*
X154492390Y-111001561D01*
X154444771Y-110811085D01*
X154397152Y-110715847D01*
X154349533Y-110668228D01*
X154254295Y-110620609D01*
X154159057Y-110620609D01*
X154063819Y-110668228D01*
X154016200Y-110715847D01*
X153968580Y-110811085D01*
X153968580Y-111049180D01*
X154016200Y-111192038D01*
X154968580Y-111620609D02*
X153968580Y-111620609D01*
X154682866Y-111953942D01*
X153968580Y-112287276D01*
X154968580Y-112287276D01*
X153968580Y-112620609D02*
X153968580Y-113192038D01*
X154968580Y-112906323D02*
X153968580Y-112906323D01*
X155063819Y-113287276D02*
X155063819Y-114049180D01*
X154920961Y-114239657D02*
X154968580Y-114382514D01*
X154968580Y-114620609D01*
X154920961Y-114715847D01*
X154873342Y-114763466D01*
X154778104Y-114811085D01*
X154682866Y-114811085D01*
X154587628Y-114763466D01*
X154540009Y-114715847D01*
X154492390Y-114620609D01*
X154444771Y-114430133D01*
X154397152Y-114334895D01*
X154349533Y-114287276D01*
X154254295Y-114239657D01*
X154159057Y-114239657D01*
X154063819Y-114287276D01*
X154016200Y-114334895D01*
X153968580Y-114430133D01*
X153968580Y-114668228D01*
X154016200Y-114811085D01*
X154968580Y-115239657D02*
X153968580Y-115239657D01*
X153968580Y-115620609D01*
X154016200Y-115715847D01*
X154063819Y-115763466D01*
X154159057Y-115811085D01*
X154301914Y-115811085D01*
X154397152Y-115763466D01*
X154444771Y-115715847D01*
X154492390Y-115620609D01*
X154492390Y-115239657D01*
X154968580Y-116239657D02*
X153968580Y-116239657D01*
X153968580Y-116477752D01*
X154016200Y-116620609D01*
X154111438Y-116715847D01*
X154206676Y-116763466D01*
X154397152Y-116811085D01*
X154540009Y-116811085D01*
X154730485Y-116763466D01*
X154825723Y-116715847D01*
X154920961Y-116620609D01*
X154968580Y-116477752D01*
X154968580Y-116239657D01*
X153968580Y-117096800D02*
X153968580Y-117668228D01*
X154968580Y-117382514D02*
X153968580Y-117382514D01*
%TO.C,R2*%
X135556285Y-78525714D02*
X135556285Y-79192380D01*
X135794380Y-78144761D02*
X136032476Y-78859047D01*
X135413428Y-78859047D01*
X135127714Y-78192380D02*
X134461047Y-78192380D01*
X134889619Y-79192380D01*
X133127714Y-78192380D02*
X132937238Y-78192380D01*
X132841999Y-78240000D01*
X132746761Y-78335238D01*
X132699142Y-78525714D01*
X132699142Y-78859047D01*
X132746761Y-79049523D01*
X132841999Y-79144761D01*
X132937238Y-79192380D01*
X133127714Y-79192380D01*
X133222952Y-79144761D01*
X133318190Y-79049523D01*
X133365809Y-78859047D01*
X133365809Y-78525714D01*
X133318190Y-78335238D01*
X133222952Y-78240000D01*
X133127714Y-78192380D01*
X132270571Y-79192380D02*
X132270571Y-78192380D01*
X131841999Y-79192380D02*
X131841999Y-78668571D01*
X131889619Y-78573333D01*
X131984857Y-78525714D01*
X132127714Y-78525714D01*
X132222952Y-78573333D01*
X132270571Y-78620952D01*
X131365809Y-79192380D02*
X131365809Y-78525714D01*
X131365809Y-78620952D02*
X131318190Y-78573333D01*
X131222952Y-78525714D01*
X131080095Y-78525714D01*
X130984857Y-78573333D01*
X130937238Y-78668571D01*
X130937238Y-79192380D01*
X130937238Y-78668571D02*
X130889619Y-78573333D01*
X130794380Y-78525714D01*
X130651523Y-78525714D01*
X130556285Y-78573333D01*
X130508666Y-78668571D01*
X130508666Y-79192380D01*
X130080095Y-79144761D02*
X129984857Y-79192380D01*
X129794380Y-79192380D01*
X129699142Y-79144761D01*
X129651523Y-79049523D01*
X129651523Y-79001904D01*
X129699142Y-78906666D01*
X129794380Y-78859047D01*
X129937238Y-78859047D01*
X130032476Y-78811428D01*
X130080095Y-78716190D01*
X130080095Y-78668571D01*
X130032476Y-78573333D01*
X129937238Y-78525714D01*
X129794380Y-78525714D01*
X129699142Y-78573333D01*
D12*
X137716390Y-78553166D02*
X137478295Y-78386500D01*
X137716390Y-78267452D02*
X137216390Y-78267452D01*
X137216390Y-78457928D01*
X137240200Y-78505547D01*
X137264009Y-78529357D01*
X137311628Y-78553166D01*
X137383057Y-78553166D01*
X137430676Y-78529357D01*
X137454485Y-78505547D01*
X137478295Y-78457928D01*
X137478295Y-78267452D01*
X137264009Y-78743642D02*
X137240200Y-78767452D01*
X137216390Y-78815071D01*
X137216390Y-78934119D01*
X137240200Y-78981738D01*
X137264009Y-79005547D01*
X137311628Y-79029357D01*
X137359247Y-79029357D01*
X137430676Y-79005547D01*
X137716390Y-78719833D01*
X137716390Y-79029357D01*
%TO.C,R1*%
D11*
X152320285Y-78701614D02*
X152320285Y-79368280D01*
X152558380Y-78320661D02*
X152796476Y-79034947D01*
X152177428Y-79034947D01*
X151891714Y-78368280D02*
X151225047Y-78368280D01*
X151653619Y-79368280D01*
X149891714Y-78368280D02*
X149701238Y-78368280D01*
X149606000Y-78415900D01*
X149510761Y-78511138D01*
X149463142Y-78701614D01*
X149463142Y-79034947D01*
X149510761Y-79225423D01*
X149606000Y-79320661D01*
X149701238Y-79368280D01*
X149891714Y-79368280D01*
X149986952Y-79320661D01*
X150082190Y-79225423D01*
X150129809Y-79034947D01*
X150129809Y-78701614D01*
X150082190Y-78511138D01*
X149986952Y-78415900D01*
X149891714Y-78368280D01*
X149034571Y-79368280D02*
X149034571Y-78368280D01*
X148606000Y-79368280D02*
X148606000Y-78844471D01*
X148653619Y-78749233D01*
X148748857Y-78701614D01*
X148891714Y-78701614D01*
X148986952Y-78749233D01*
X149034571Y-78796852D01*
X148129809Y-79368280D02*
X148129809Y-78701614D01*
X148129809Y-78796852D02*
X148082190Y-78749233D01*
X147986952Y-78701614D01*
X147844095Y-78701614D01*
X147748857Y-78749233D01*
X147701238Y-78844471D01*
X147701238Y-79368280D01*
X147701238Y-78844471D02*
X147653619Y-78749233D01*
X147558380Y-78701614D01*
X147415523Y-78701614D01*
X147320285Y-78749233D01*
X147272666Y-78844471D01*
X147272666Y-79368280D01*
X146844095Y-79320661D02*
X146748857Y-79368280D01*
X146558380Y-79368280D01*
X146463142Y-79320661D01*
X146415523Y-79225423D01*
X146415523Y-79177804D01*
X146463142Y-79082566D01*
X146558380Y-79034947D01*
X146701238Y-79034947D01*
X146796476Y-78987328D01*
X146844095Y-78892090D01*
X146844095Y-78844471D01*
X146796476Y-78749233D01*
X146701238Y-78701614D01*
X146558380Y-78701614D01*
X146463142Y-78749233D01*
D12*
X154912190Y-78578566D02*
X154674095Y-78411900D01*
X154912190Y-78292852D02*
X154412190Y-78292852D01*
X154412190Y-78483328D01*
X154436000Y-78530947D01*
X154459809Y-78554757D01*
X154507428Y-78578566D01*
X154578857Y-78578566D01*
X154626476Y-78554757D01*
X154650285Y-78530947D01*
X154674095Y-78483328D01*
X154674095Y-78292852D01*
X154912190Y-79054757D02*
X154912190Y-78769042D01*
X154912190Y-78911900D02*
X154412190Y-78911900D01*
X154483619Y-78864280D01*
X154531238Y-78816661D01*
X154555047Y-78769042D01*
%TO.C,BAT1*%
D11*
X130860800Y-125283980D02*
X130860800Y-125522076D01*
X131098895Y-125426838D02*
X130860800Y-125522076D01*
X130622704Y-125426838D01*
X131003657Y-125712552D02*
X130860800Y-125522076D01*
X130717942Y-125712552D01*
%TD*%
M02*
