%TF.GenerationSoftware,KiCad,Pcbnew,(5.1.9-0-10_14)*%
%TF.CreationDate,2021-10-18T11:04:09-07:00*%
%TF.ProjectId,ghost_pcb_2a,67686f73-745f-4706-9362-5f32612e6b69,rev?*%
%TF.SameCoordinates,Original*%
%TF.FileFunction,Profile,NP*%
%FSLAX46Y46*%
G04 Gerber Fmt 4.6, Leading zero omitted, Abs format (unit mm)*
G04 Created by KiCad (PCBNEW (5.1.9-0-10_14)) date 2021-10-18 11:04:09*
%MOMM*%
%LPD*%
G01*
G04 APERTURE LIST*
%TA.AperFunction,Profile*%
%ADD10C,0.100000*%
%TD*%
%TA.AperFunction,Profile*%
%ADD11C,1.000000*%
%TD*%
G04 APERTURE END LIST*
D10*
X138660000Y-57912000D02*
G75*
G03*
X138660000Y-57912000I-1500000J0D01*
G01*
D11*
X111097548Y-134303498D02*
X114037514Y-135907116D01*
X108959392Y-131363538D02*
X111097548Y-134303498D01*
X113502972Y-85660438D02*
X112166624Y-92609458D01*
X98535878Y-133234418D02*
X99337688Y-134570758D01*
X101208578Y-129759918D02*
X98535878Y-133234418D01*
X114839324Y-70426080D02*
X114572052Y-78176900D01*
X122322868Y-133501678D02*
X123391948Y-132432598D01*
X118046554Y-136174376D02*
X122322868Y-133501678D01*
X114037514Y-135907116D02*
X118046554Y-136174376D01*
X127400978Y-55458980D02*
X130474580Y-54389900D01*
X124995550Y-56394420D02*
X127400978Y-55458980D01*
X122590128Y-57864420D02*
X124995550Y-56394420D01*
X120986510Y-58933500D02*
X122590128Y-57864420D01*
X119650164Y-60269840D02*
X120986510Y-58933500D01*
X118313816Y-61606180D02*
X119650164Y-60269840D01*
X117244736Y-62942540D02*
X118313816Y-61606180D01*
X104415810Y-123879978D02*
X101208578Y-129759918D01*
X107088502Y-115327358D02*
X104415810Y-123879978D01*
X152657960Y-131497158D02*
X150653440Y-134169858D01*
X155197020Y-127087218D02*
X152657960Y-131497158D01*
X157335180Y-122543638D02*
X155197020Y-127087218D01*
X159740600Y-115327358D02*
X157335180Y-122543638D01*
X161878760Y-106774738D02*
X159740600Y-115327358D01*
X163482380Y-100092998D02*
X161878760Y-106774738D01*
X164284180Y-92609458D02*
X163482380Y-100092998D01*
X165353260Y-82987738D02*
X164284180Y-92609458D01*
X165887800Y-70960620D02*
X165353260Y-82987738D01*
X107088502Y-131898078D02*
X108959392Y-131363538D01*
X104449218Y-134002818D02*
X107088502Y-131898078D01*
X134397822Y-136536116D02*
X135998078Y-136379516D01*
X132499254Y-135859878D02*
X134397822Y-136536116D01*
X131188620Y-134697678D02*
X132499254Y-135859878D01*
X142617740Y-132657918D02*
X141432640Y-132298938D01*
X144188940Y-134302058D02*
X142617740Y-132657918D01*
X145616700Y-135503458D02*
X144188940Y-134302058D01*
X147610860Y-136033996D02*
X145616700Y-135503458D01*
X149183460Y-135238938D02*
X147610860Y-136033996D01*
X150653440Y-134169858D02*
X149183460Y-135238938D01*
X109761202Y-104369298D02*
X107088502Y-115327358D01*
X112166624Y-92609458D02*
X109761202Y-104369298D01*
X141432640Y-132298858D02*
X141432640Y-132298858D01*
X140430940Y-132680138D02*
X141432640Y-132298858D01*
X139185568Y-134060078D02*
X140430940Y-132680138D01*
X114572052Y-78176900D02*
X113502972Y-85660438D01*
X130085952Y-132780378D02*
X131188620Y-134697678D01*
X129000224Y-131508738D02*
X130085952Y-132780378D01*
X127467806Y-131096278D02*
X129000224Y-131508738D01*
X125262832Y-131363538D02*
X127467806Y-131096278D01*
X123391948Y-132432598D02*
X125262832Y-131363538D01*
X101814874Y-134992858D02*
X104449218Y-134002818D01*
X99337688Y-134570758D02*
X101814874Y-134992858D01*
X138406286Y-134955378D02*
X139185568Y-134060078D01*
X137320994Y-135954276D02*
X138406286Y-134955378D01*
X135998078Y-136379516D02*
X137320994Y-135954276D01*
X115908388Y-65214320D02*
X117244736Y-62942540D01*
X114972944Y-67619760D02*
X115908388Y-65214320D01*
X114839324Y-70426080D02*
X114972944Y-67619760D01*
X156934260Y-57196240D02*
X159740600Y-59334400D01*
X153727040Y-55726260D02*
X156934260Y-57196240D01*
X150787080Y-54523540D02*
X153727040Y-55726260D01*
X147312540Y-53721740D02*
X150787080Y-54523540D01*
X144639860Y-53320840D02*
X147312540Y-53721740D01*
X141031720Y-53053560D02*
X144639860Y-53320840D01*
X137557220Y-53053560D02*
X141031720Y-53053560D01*
X133815446Y-53588100D02*
X137557220Y-53053560D01*
X130474580Y-54389900D02*
X133815446Y-53588100D01*
X165887780Y-70960620D02*
X165887780Y-70960620D01*
X165353260Y-68154280D02*
X165887780Y-70960620D01*
X165086000Y-66817940D02*
X165353260Y-68154280D01*
X163883280Y-64145240D02*
X165086000Y-66817940D01*
X162146020Y-61739820D02*
X163883280Y-64145240D01*
X159740600Y-59334400D02*
X162146020Y-61739820D01*
M02*
