%TF.GenerationSoftware,KiCad,Pcbnew,(5.1.9-0-10_14)*%
%TF.CreationDate,2021-10-18T11:04:09-07:00*%
%TF.ProjectId,ghost_pcb_2a,67686f73-745f-4706-9362-5f32612e6b69,rev?*%
%TF.SameCoordinates,Original*%
%TF.FileFunction,Legend,Bot*%
%TF.FilePolarity,Positive*%
%FSLAX46Y46*%
G04 Gerber Fmt 4.6, Leading zero omitted, Abs format (unit mm)*
G04 Created by KiCad (PCBNEW (5.1.9-0-10_14)) date 2021-10-18 11:04:09*
%MOMM*%
%LPD*%
G01*
G04 APERTURE LIST*
%ADD10C,0.150000*%
%ADD11C,0.120000*%
G04 APERTURE END LIST*
D10*
X140890000Y-123261428D02*
X140128095Y-123261428D01*
X140509047Y-123642380D02*
X140509047Y-122880476D01*
X138890000Y-123642380D02*
X138890000Y-122642380D01*
X138509047Y-122642380D01*
X138413809Y-122690000D01*
X138366190Y-122737619D01*
X138318571Y-122832857D01*
X138318571Y-122975714D01*
X138366190Y-123070952D01*
X138413809Y-123118571D01*
X138509047Y-123166190D01*
X138890000Y-123166190D01*
X137699523Y-122642380D02*
X137509047Y-122642380D01*
X137413809Y-122690000D01*
X137318571Y-122785238D01*
X137270952Y-122975714D01*
X137270952Y-123309047D01*
X137318571Y-123499523D01*
X137413809Y-123594761D01*
X137509047Y-123642380D01*
X137699523Y-123642380D01*
X137794761Y-123594761D01*
X137890000Y-123499523D01*
X137937619Y-123309047D01*
X137937619Y-122975714D01*
X137890000Y-122785238D01*
X137794761Y-122690000D01*
X137699523Y-122642380D01*
X136890000Y-123594761D02*
X136747142Y-123642380D01*
X136509047Y-123642380D01*
X136413809Y-123594761D01*
X136366190Y-123547142D01*
X136318571Y-123451904D01*
X136318571Y-123356666D01*
X136366190Y-123261428D01*
X136413809Y-123213809D01*
X136509047Y-123166190D01*
X136699523Y-123118571D01*
X136794761Y-123070952D01*
X136842380Y-123023333D01*
X136890000Y-122928095D01*
X136890000Y-122832857D01*
X136842380Y-122737619D01*
X136794761Y-122690000D01*
X136699523Y-122642380D01*
X136461428Y-122642380D01*
X136318571Y-122690000D01*
X135890000Y-123642380D02*
X135890000Y-122642380D01*
X135556666Y-122642380D02*
X134985238Y-122642380D01*
X135270952Y-123642380D02*
X135270952Y-122642380D01*
X134651904Y-123642380D02*
X134651904Y-122642380D01*
X134318571Y-122642380D02*
X133985238Y-123642380D01*
X133651904Y-122642380D01*
X133318571Y-123118571D02*
X132985238Y-123118571D01*
X132842380Y-123642380D02*
X133318571Y-123642380D01*
X133318571Y-122642380D01*
X132842380Y-122642380D01*
X131651904Y-123261428D02*
X130890000Y-123261428D01*
X131270952Y-123642380D02*
X131270952Y-122880476D01*
D11*
%TO.C,R2*%
X136755200Y-78863564D02*
X136755200Y-78409436D01*
X138225200Y-78863564D02*
X138225200Y-78409436D01*
%TO.C,R1*%
X153951000Y-78888964D02*
X153951000Y-78434836D01*
X155421000Y-78888964D02*
X155421000Y-78434836D01*
%TO.C,BAT1*%
X124532400Y-124239147D02*
X147189200Y-124239147D01*
X147189200Y-124239147D02*
X147189200Y-130893947D01*
X147189200Y-130893947D02*
X124532400Y-130893947D01*
X124532400Y-130893947D02*
X124532400Y-124239147D01*
X123135400Y-125831600D02*
G75*
G03*
X123135400Y-125831600I-381000J0D01*
G01*
%TO.C,SW1*%
D10*
X155920961Y-112763466D02*
X155968580Y-112906323D01*
X155968580Y-113144419D01*
X155920961Y-113239657D01*
X155873342Y-113287276D01*
X155778104Y-113334895D01*
X155682866Y-113334895D01*
X155587628Y-113287276D01*
X155540009Y-113239657D01*
X155492390Y-113144419D01*
X155444771Y-112953942D01*
X155397152Y-112858704D01*
X155349533Y-112811085D01*
X155254295Y-112763466D01*
X155159057Y-112763466D01*
X155063819Y-112811085D01*
X155016200Y-112858704D01*
X154968580Y-112953942D01*
X154968580Y-113192038D01*
X155016200Y-113334895D01*
X154968580Y-113668228D02*
X155968580Y-113906323D01*
X155254295Y-114096800D01*
X155968580Y-114287276D01*
X154968580Y-114525371D01*
X155968580Y-115430133D02*
X155968580Y-114858704D01*
X155968580Y-115144419D02*
X154968580Y-115144419D01*
X155111438Y-115049180D01*
X155206676Y-114953942D01*
X155254295Y-114858704D01*
%TO.C,R2*%
X139866666Y-79088880D02*
X140200000Y-78612690D01*
X140438095Y-79088880D02*
X140438095Y-78088880D01*
X140057142Y-78088880D01*
X139961904Y-78136500D01*
X139914285Y-78184119D01*
X139866666Y-78279357D01*
X139866666Y-78422214D01*
X139914285Y-78517452D01*
X139961904Y-78565071D01*
X140057142Y-78612690D01*
X140438095Y-78612690D01*
X139485714Y-78184119D02*
X139438095Y-78136500D01*
X139342857Y-78088880D01*
X139104761Y-78088880D01*
X139009523Y-78136500D01*
X138961904Y-78184119D01*
X138914285Y-78279357D01*
X138914285Y-78374595D01*
X138961904Y-78517452D01*
X139533333Y-79088880D01*
X138914285Y-79088880D01*
%TO.C,R1*%
X157214866Y-79217780D02*
X157548200Y-78741590D01*
X157786295Y-79217780D02*
X157786295Y-78217780D01*
X157405342Y-78217780D01*
X157310104Y-78265400D01*
X157262485Y-78313019D01*
X157214866Y-78408257D01*
X157214866Y-78551114D01*
X157262485Y-78646352D01*
X157310104Y-78693971D01*
X157405342Y-78741590D01*
X157786295Y-78741590D01*
X156262485Y-79217780D02*
X156833914Y-79217780D01*
X156548200Y-79217780D02*
X156548200Y-78217780D01*
X156643438Y-78360638D01*
X156738676Y-78455876D01*
X156833914Y-78503495D01*
%TO.C,BAT1*%
X150566285Y-126674571D02*
X150423428Y-126722190D01*
X150375809Y-126769809D01*
X150328190Y-126865047D01*
X150328190Y-127007904D01*
X150375809Y-127103142D01*
X150423428Y-127150761D01*
X150518666Y-127198380D01*
X150899619Y-127198380D01*
X150899619Y-126198380D01*
X150566285Y-126198380D01*
X150471047Y-126246000D01*
X150423428Y-126293619D01*
X150375809Y-126388857D01*
X150375809Y-126484095D01*
X150423428Y-126579333D01*
X150471047Y-126626952D01*
X150566285Y-126674571D01*
X150899619Y-126674571D01*
X149947238Y-126912666D02*
X149471047Y-126912666D01*
X150042476Y-127198380D02*
X149709142Y-126198380D01*
X149375809Y-127198380D01*
X149185333Y-126198380D02*
X148613904Y-126198380D01*
X148899619Y-127198380D02*
X148899619Y-126198380D01*
X147756761Y-127198380D02*
X148328190Y-127198380D01*
X148042476Y-127198380D02*
X148042476Y-126198380D01*
X148137714Y-126341238D01*
X148232952Y-126436476D01*
X148328190Y-126484095D01*
X130860800Y-125283980D02*
X130860800Y-125522076D01*
X131098895Y-125426838D02*
X130860800Y-125522076D01*
X130622704Y-125426838D01*
X131003657Y-125712552D02*
X130860800Y-125522076D01*
X130717942Y-125712552D01*
%TD*%
M02*
