%TF.GenerationSoftware,KiCad,Pcbnew,(5.1.9-0-10_14)*%
%TF.CreationDate,2021-10-18T11:04:09-07:00*%
%TF.ProjectId,ghost_pcb_2a,67686f73-745f-4706-9362-5f32612e6b69,rev?*%
%TF.SameCoordinates,Original*%
%TF.FileFunction,Copper,L2,Bot*%
%TF.FilePolarity,Positive*%
%FSLAX46Y46*%
G04 Gerber Fmt 4.6, Leading zero omitted, Abs format (unit mm)*
G04 Created by KiCad (PCBNEW (5.1.9-0-10_14)) date 2021-10-18 11:04:09*
%MOMM*%
%LPD*%
G01*
G04 APERTURE LIST*
%TA.AperFunction,ComponentPad*%
%ADD10C,1.524000*%
%TD*%
%TA.AperFunction,SMDPad,CuDef*%
%ADD11R,1.900000X1.000000*%
%TD*%
%TA.AperFunction,ComponentPad*%
%ADD12C,1.800000*%
%TD*%
%TA.AperFunction,ComponentPad*%
%ADD13R,1.800000X1.800000*%
%TD*%
%TA.AperFunction,Conductor*%
%ADD14C,0.500000*%
%TD*%
G04 APERTURE END LIST*
D10*
%TO.P,SW1,*%
%TO.N,*%
X157302200Y-110971800D03*
X157302200Y-117221800D03*
D11*
%TO.P,SW1,1*%
%TO.N,Net-(R1-Pad1)*%
X153252200Y-110971800D03*
%TO.P,SW1,2*%
%TO.N,Net-(SW1-Pad2)*%
X153238200Y-112971800D03*
%TO.P,SW1,3*%
%TO.N,+BATT*%
X153238200Y-114971800D03*
%TD*%
%TO.P,R2,2*%
%TO.N,Net-(D2-Pad2)*%
%TA.AperFunction,SMDPad,CuDef*%
G36*
G01*
X137940201Y-78236500D02*
X137040199Y-78236500D01*
G75*
G02*
X136790200Y-77986501I0J249999D01*
G01*
X136790200Y-77461499D01*
G75*
G02*
X137040199Y-77211500I249999J0D01*
G01*
X137940201Y-77211500D01*
G75*
G02*
X138190200Y-77461499I0J-249999D01*
G01*
X138190200Y-77986501D01*
G75*
G02*
X137940201Y-78236500I-249999J0D01*
G01*
G37*
%TD.AperFunction*%
%TO.P,R2,1*%
%TO.N,Net-(R1-Pad1)*%
%TA.AperFunction,SMDPad,CuDef*%
G36*
G01*
X137940201Y-80061500D02*
X137040199Y-80061500D01*
G75*
G02*
X136790200Y-79811501I0J249999D01*
G01*
X136790200Y-79286499D01*
G75*
G02*
X137040199Y-79036500I249999J0D01*
G01*
X137940201Y-79036500D01*
G75*
G02*
X138190200Y-79286499I0J-249999D01*
G01*
X138190200Y-79811501D01*
G75*
G02*
X137940201Y-80061500I-249999J0D01*
G01*
G37*
%TD.AperFunction*%
%TD*%
%TO.P,R1,2*%
%TO.N,Net-(D1-Pad2)*%
%TA.AperFunction,SMDPad,CuDef*%
G36*
G01*
X155136001Y-78261900D02*
X154235999Y-78261900D01*
G75*
G02*
X153986000Y-78011901I0J249999D01*
G01*
X153986000Y-77486899D01*
G75*
G02*
X154235999Y-77236900I249999J0D01*
G01*
X155136001Y-77236900D01*
G75*
G02*
X155386000Y-77486899I0J-249999D01*
G01*
X155386000Y-78011901D01*
G75*
G02*
X155136001Y-78261900I-249999J0D01*
G01*
G37*
%TD.AperFunction*%
%TO.P,R1,1*%
%TO.N,Net-(R1-Pad1)*%
%TA.AperFunction,SMDPad,CuDef*%
G36*
G01*
X155136001Y-80086900D02*
X154235999Y-80086900D01*
G75*
G02*
X153986000Y-79836901I0J249999D01*
G01*
X153986000Y-79311899D01*
G75*
G02*
X154235999Y-79061900I249999J0D01*
G01*
X155136001Y-79061900D01*
G75*
G02*
X155386000Y-79311899I0J-249999D01*
G01*
X155386000Y-79836901D01*
G75*
G02*
X155136001Y-80086900I-249999J0D01*
G01*
G37*
%TD.AperFunction*%
%TD*%
D12*
%TO.P,D2,2*%
%TO.N,Net-(D2-Pad2)*%
X137414000Y-73406000D03*
D13*
%TO.P,D2,1*%
%TO.N,GND*%
X134874000Y-73406000D03*
%TD*%
%TO.P,D1,1*%
%TO.N,GND*%
X152146000Y-73914000D03*
D12*
%TO.P,D1,2*%
%TO.N,Net-(D1-Pad2)*%
X154686000Y-73914000D03*
%TD*%
D10*
%TO.P,BAT1,POS2*%
%TO.N,+BATT*%
X140860800Y-125831600D03*
%TO.P,BAT1,NEG*%
%TO.N,GND*%
X135860800Y-129301601D03*
%TO.P,BAT1,POS1*%
%TO.N,+BATT*%
X130860800Y-125831600D03*
%TD*%
D14*
%TO.N,+BATT*%
X130860800Y-125831600D02*
X140860800Y-125831600D01*
X140860800Y-125831600D02*
X145186400Y-125831600D01*
X145186400Y-125831600D02*
X147574000Y-123444000D01*
X147574000Y-123444000D02*
X147574000Y-116840000D01*
X149442200Y-114971800D02*
X153238200Y-114971800D01*
X147574000Y-116840000D02*
X149442200Y-114971800D01*
%TO.N,GND*%
X129794000Y-73406000D02*
X134874000Y-73406000D01*
X127000000Y-76200000D02*
X129794000Y-73406000D01*
X127000000Y-127508000D02*
X127000000Y-76200000D01*
X128793601Y-129301601D02*
X127000000Y-127508000D01*
X135860800Y-129301601D02*
X128793601Y-129301601D01*
X135890000Y-69596000D02*
X134874000Y-70612000D01*
X151130000Y-69596000D02*
X135890000Y-69596000D01*
X134874000Y-70612000D02*
X134874000Y-73406000D01*
X152146000Y-70612000D02*
X151130000Y-69596000D01*
X152146000Y-73914000D02*
X152146000Y-70612000D01*
%TO.N,Net-(D1-Pad2)*%
X154686000Y-73914000D02*
X154686000Y-77749400D01*
%TO.N,Net-(D2-Pad2)*%
X137464800Y-77698600D02*
X137490200Y-77724000D01*
X137414000Y-77647800D02*
X137490200Y-77724000D01*
X137414000Y-73406000D02*
X137414000Y-77647800D01*
%TO.N,Net-(R1-Pad1)*%
X153252200Y-110971800D02*
X151865800Y-110971800D01*
X151865800Y-110971800D02*
X150545800Y-109651800D01*
X154660600Y-79549000D02*
X154686000Y-79574400D01*
X137490200Y-79549000D02*
X154660600Y-79549000D01*
X154686000Y-79574400D02*
X154686000Y-98044000D01*
X150545800Y-102184200D02*
X150545800Y-109651800D01*
X154686000Y-98044000D02*
X150545800Y-102184200D01*
%TD*%
M02*
