  0
SECTION
  2
HEADER
  9
$ACADVER
  1
AC1014
  9
$HANDSEED
  5
FFFF
  9
$MEASUREMENT
 70
     1
  0
ENDSEC
  0
SECTION
  2
TABLES
  0
TABLE
  2
VPORT
  5
8
330
0
100
AcDbSymbolTable
 70
     4
  0
VPORT
  5
2E
330
8
100
AcDbSymbolTableRecord
100
AcDbViewportTableRecord
  2
*ACTIVE
 70
     0
 10
0.0
 20
0.0
 11
1.0
 21
1.0
 12
210.0
 22
148.5
 13
0.0
 23
0.0
 14
10.0
 24
10.0
 15
10.0
 25
10.0
 16
0.0
 26
0.0
 36
1.0
 17
0.0
 27
0.0
 37
0.0
 40
341.0
 41
1.24
 42
50.0
 43
0.0
 44
0.0
 50
0.0
 51
0.0
 71
     0
 72
   100
 73
     1
 74
     3
 75
     0
 76
     0
 77
     0
 78
     0
  0
ENDTAB
  0
TABLE
  2
LTYPE
  5
5
330
0
100
AcDbSymbolTable
 70
     1
  0
LTYPE
  5
14
330
5
100
AcDbSymbolTableRecord
100
AcDbLinetypeTableRecord
  2
BYBLOCK
 70
     0
  3

 72
    65
 73
     0
 40
0.0
  0
LTYPE
  5
15
330
5
100
AcDbSymbolTableRecord
100
AcDbLinetypeTableRecord
  2
BYLAYER
 70
     0
  3

 72
    65
 73
     0
 40
0.0
  0
LTYPE
  5
16
330
5
100
AcDbSymbolTableRecord
100
AcDbLinetypeTableRecord
  2
CONTINUOUS
 70
     0
  3
Solid line
 72
    65
 73
     0
 40
0.0
  0
ENDTAB
  0
TABLE
  2
LAYER
  5
2
100
AcDbSymbolTable
 70
2
  0
LAYER
  5
50
100
AcDbSymbolTableRecord
100
AcDbLayerTableRecord
  2
0
 70
0
  6
CONTINUOUS
  0
LAYER
  5
51
100
AcDbSymbolTableRecord
100
AcDbLayerTableRecord
  2
Layer_1
 70
0
  6
CONTINUOUS
  0
ENDTAB
  0
TABLE
  2
STYLE
  5
3
330
0
100
AcDbSymbolTable
 70
     1
  0
STYLE
  5
11
330
3
100
AcDbSymbolTableRecord
100
AcDbTextStyleTableRecord
  2
STANDARD
 70
     0
 40
0.0
 41
1.0
 50
0.0
 71
     0
 42
2.5
  3
txt
  4

  0
ENDTAB
  0
TABLE
  2
VIEW
  5
6
330
0
100
AcDbSymbolTable
 70
     0
  0
ENDTAB
  0
TABLE
  2
UCS
  5
7
330
0
100
AcDbSymbolTable
 70
     0
  0
ENDTAB
  0
TABLE
  2
APPID
  5
9
330
0
100
AcDbSymbolTable
 70
     2
  0
APPID
  5
12
330
9
100
AcDbSymbolTableRecord
100
AcDbRegAppTableRecord
  2
ACAD
 70
     0
  0
ENDTAB
  0
TABLE
  2
DIMSTYLE
  5
A
330
0
100
AcDbSymbolTable
 70
     1
  0
DIMSTYLE
105
27
330
A
100
AcDbSymbolTableRecord
100
AcDbDimStyleTableRecord
  2
ISO-25
 70
     0
  3

  4

  5

  6

  7

 40
1.0
 41
2.5
 42
0.625
 43
3.75
 44
1.25
 45
0.0
 46
0.0
 47
0.0
 48
0.0
140
2.5
141
2.5
142
0.0
143
0.03937007874016
144
1.0
145
0.0
146
1.0
147
0.625
 71
     0
 72
     0
 73
     0
 74
     0
 75
     0
 76
     0
 77
     1
 78
     8
170
     0
171
     3
172
     1
173
     0
174
     0
175
     0
176
     0
177
     0
178
     0
270
     2
271
     2
272
     2
273
     2
274
     3
340
11
275
     0
280
     0
281
     0
282
     0
283
     0
284
     8
285
     0
286
     0
287
     3
288
     0
  0
ENDTAB
  0
TABLE
  2
BLOCK_RECORD
  5
1
330
0
100
AcDbSymbolTable
 70
     1
  0
BLOCK_RECORD
  5
1F
330
1
100
AcDbSymbolTableRecord
100
AcDbBlockTableRecord
  2
*MODEL_SPACE
  0
BLOCK_RECORD
  5
1B
330
1
100
AcDbSymbolTableRecord
100
AcDbBlockTableRecord
  2
*PAPER_SPACE
  0
ENDTAB
  0
ENDSEC
  0
SECTION
  2
BLOCKS
  0
BLOCK
  5
20
330
1F
100
AcDbEntity
  8
0
100
AcDbBlockBegin
  2
*MODEL_SPACE
 70
     0
 10
0.0
 20
0.0
 30
0.0
  3
*MODEL_SPACE
  1

  0
ENDBLK
  5
21
330
1F
100
AcDbEntity
  8
0
100
AcDbBlockEnd
  0
BLOCK
  5
1C
330
1B
100
AcDbEntity
 67
     1
  8
0
100
AcDbBlockBegin
  2
*PAPER_SPACE
  1

  0
ENDBLK
  5
1D
330
1B
100
AcDbEntity
 67
     1
  8
0
100
AcDbBlockEnd
  0
ENDSEC
  0
SECTION
  2
ENTITIES
  0
LWPOLYLINE
  5
100
100
AcDbEntity
  8
Layer_1
 62
7
100
AcDbPolyline
 90
66
 70
1
 10
103.376486
 20
156.179744
 30
0.0
 10
103.376486
 20
154.100874
 30
0.0
 10
92.793152
 20
158.636594
 30
0.0
 10
89.013388
 20
159.392544
 30
0.0
 10
82.020829
 20
159.014564
 30
0.0
 10
77.485114
 20
157.502664
 30
0.0
 10
74.272319
 20
155.612784
 30
0.0
 10
71.059520
 20
152.399985
 30
0.0
 10
68.791664
 20
148.620225
 30
0.0
 10
67.090771
 20
144.273495
 30
0.0
 10
65.956841
 20
138.603855
 30
0.0
 10
65.578865
 20
134.068145
 30
0.0
 10
65.200890
 20
125.185706
 30
0.0
 10
65.956841
 20
120.649986
 30
0.0
 10
67.657736
 20
115.358326
 30
0.0
 10
70.870531
 20
108.554746
 30
0.0
 10
73.894340
 20
104.963976
 30
0.0
 10
76.351187
 20
102.696116
 30
0.0
 10
79.563985
 20
100.806236
 30
0.0
 10
83.532735
 20
99.483326
 30
0.0
 10
87.123507
 20
98.916356
 30
0.0
 10
88.257437
 20
98.538376
 30
0.0
 10
91.092257
 20
99.105346
 30
0.0
 10
95.627972
 20
100.428266
 30
0.0
 10
97.895828
 20
100.995226
 30
0.0
 10
101.108626
 20
101.751176
 30
0.0
 10
103.187496
 20
101.751176
 30
0.0
 10
105.644336
 20
101.562186
 30
0.0
 10
110.180056
 20
100.050286
 30
0.0
 10
113.392856
 20
99.105346
 30
0.0
 10
116.416666
 20
98.349396
 30
0.0
 10
118.495526
 20
98.160406
 30
0.0
 10
122.464276
 20
98.538376
 30
0.0
 10
127.188985
 20
99.672306
 30
0.0
 10
130.779755
 20
100.995226
 30
0.0
 10
133.425585
 20
102.318146
 30
0.0
 10
135.882435
 20
103.830046
 30
0.0
 10
138.528265
 20
106.664866
 30
0.0
 10
140.418145
 20
109.877666
 30
0.0
 10
141.741065
 20
113.657426
 30
0.0
 10
142.119045
 20
117.437186
 30
0.0
 10
142.686005
 20
121.972906
 30
0.0
 10
142.686005
 20
127.264575
 30
0.0
 10
142.686005
 20
131.611295
 30
0.0
 10
142.119045
 20
135.958025
 30
0.0
 10
141.363085
 20
140.493735
 30
0.0
 10
140.229155
 20
144.462485
 30
0.0
 10
137.583325
 20
148.998205
 30
0.0
 10
134.181545
 20
152.210995
 30
0.0
 10
129.267855
 20
154.478854
 30
0.0
 10
125.299106
 20
156.179744
 30
0.0
 10
121.519336
 20
157.124684
 30
0.0
 10
119.062496
 20
156.935704
 30
0.0
 10
116.038686
 20
155.990764
 30
0.0
 10
112.825886
 20
154.856834
 30
0.0
 10
110.180056
 20
154.100874
 30
0.0
 10
107.723206
 20
153.722904
 30
0.0
 10
106.967256
 20
154.478854
 30
0.0
 10
107.156246
 20
157.502664
 30
0.0
 10
107.912196
 20
162.038374
 30
0.0
 10
108.479166
 20
164.873204
 30
0.0
 10
109.235116
 20
167.330044
 30
0.0
 10
104.699396
 20
165.251174
 30
0.0
 10
102.242556
 20
164.306234
 30
0.0
 10
102.431546
 20
161.660404
 30
0.0
 10
102.998506
 20
159.203554
 30
0.0
  0
ENDSEC
  0
SECTION
  2
OBJECTS
  0
DICTIONARY
  5
C
330
0
100
AcDbDictionary
  3
ACAD_GROUP
350
D
  3
ACAD_MLINESTYLE
350
17
  0
DICTIONARY
  5
D
330
C
100
AcDbDictionary
  0
DICTIONARY
  5
1A
330
C
100
AcDbDictionary
  0
DICTIONARY
  5
17
330
C
100
AcDbDictionary
  3
STANDARD
350
18
  0
DICTIONARY
  5
19
330
C
100
AcDbDictionary
  0
ENDSEC
  0
EOF
