  0
SECTION
  2
HEADER
  9
$ACADVER
  1
AC1014
  9
$HANDSEED
  5
FFFF
  9
$MEASUREMENT
 70
     1
  0
ENDSEC
  0
SECTION
  2
TABLES
  0
TABLE
  2
VPORT
  5
8
330
0
100
AcDbSymbolTable
 70
     4
  0
VPORT
  5
2E
330
8
100
AcDbSymbolTableRecord
100
AcDbViewportTableRecord
  2
*ACTIVE
 70
     0
 10
0.0
 20
0.0
 11
1.0
 21
1.0
 12
210.0
 22
148.5
 13
0.0
 23
0.0
 14
10.0
 24
10.0
 15
10.0
 25
10.0
 16
0.0
 26
0.0
 36
1.0
 17
0.0
 27
0.0
 37
0.0
 40
341.0
 41
1.24
 42
50.0
 43
0.0
 44
0.0
 50
0.0
 51
0.0
 71
     0
 72
   100
 73
     1
 74
     3
 75
     0
 76
     0
 77
     0
 78
     0
  0
ENDTAB
  0
TABLE
  2
LTYPE
  5
5
330
0
100
AcDbSymbolTable
 70
     1
  0
LTYPE
  5
14
330
5
100
AcDbSymbolTableRecord
100
AcDbLinetypeTableRecord
  2
BYBLOCK
 70
     0
  3

 72
    65
 73
     0
 40
0.0
  0
LTYPE
  5
15
330
5
100
AcDbSymbolTableRecord
100
AcDbLinetypeTableRecord
  2
BYLAYER
 70
     0
  3

 72
    65
 73
     0
 40
0.0
  0
LTYPE
  5
16
330
5
100
AcDbSymbolTableRecord
100
AcDbLinetypeTableRecord
  2
CONTINUOUS
 70
     0
  3
Solid line
 72
    65
 73
     0
 40
0.0
  0
ENDTAB
  0
TABLE
  2
LAYER
  5
2
100
AcDbSymbolTable
 70
2
  0
LAYER
  5
50
100
AcDbSymbolTableRecord
100
AcDbLayerTableRecord
  2
0
 70
0
  6
CONTINUOUS
  0
LAYER
  5
51
100
AcDbSymbolTableRecord
100
AcDbLayerTableRecord
  2
Layer_1
 70
0
  6
CONTINUOUS
  0
ENDTAB
  0
TABLE
  2
STYLE
  5
3
330
0
100
AcDbSymbolTable
 70
     1
  0
STYLE
  5
11
330
3
100
AcDbSymbolTableRecord
100
AcDbTextStyleTableRecord
  2
STANDARD
 70
     0
 40
0.0
 41
1.0
 50
0.0
 71
     0
 42
2.5
  3
txt
  4

  0
ENDTAB
  0
TABLE
  2
VIEW
  5
6
330
0
100
AcDbSymbolTable
 70
     0
  0
ENDTAB
  0
TABLE
  2
UCS
  5
7
330
0
100
AcDbSymbolTable
 70
     0
  0
ENDTAB
  0
TABLE
  2
APPID
  5
9
330
0
100
AcDbSymbolTable
 70
     2
  0
APPID
  5
12
330
9
100
AcDbSymbolTableRecord
100
AcDbRegAppTableRecord
  2
ACAD
 70
     0
  0
ENDTAB
  0
TABLE
  2
DIMSTYLE
  5
A
330
0
100
AcDbSymbolTable
 70
     1
  0
DIMSTYLE
105
27
330
A
100
AcDbSymbolTableRecord
100
AcDbDimStyleTableRecord
  2
ISO-25
 70
     0
  3

  4

  5

  6

  7

 40
1.0
 41
2.5
 42
0.625
 43
3.75
 44
1.25
 45
0.0
 46
0.0
 47
0.0
 48
0.0
140
2.5
141
2.5
142
0.0
143
0.03937007874016
144
1.0
145
0.0
146
1.0
147
0.625
 71
     0
 72
     0
 73
     0
 74
     0
 75
     0
 76
     0
 77
     1
 78
     8
170
     0
171
     3
172
     1
173
     0
174
     0
175
     0
176
     0
177
     0
178
     0
270
     2
271
     2
272
     2
273
     2
274
     3
340
11
275
     0
280
     0
281
     0
282
     0
283
     0
284
     8
285
     0
286
     0
287
     3
288
     0
  0
ENDTAB
  0
TABLE
  2
BLOCK_RECORD
  5
1
330
0
100
AcDbSymbolTable
 70
     1
  0
BLOCK_RECORD
  5
1F
330
1
100
AcDbSymbolTableRecord
100
AcDbBlockTableRecord
  2
*MODEL_SPACE
  0
BLOCK_RECORD
  5
1B
330
1
100
AcDbSymbolTableRecord
100
AcDbBlockTableRecord
  2
*PAPER_SPACE
  0
ENDTAB
  0
ENDSEC
  0
SECTION
  2
BLOCKS
  0
BLOCK
  5
20
330
1F
100
AcDbEntity
  8
0
100
AcDbBlockBegin
  2
*MODEL_SPACE
 70
     0
 10
0.0
 20
0.0
 30
0.0
  3
*MODEL_SPACE
  1

  0
ENDBLK
  5
21
330
1F
100
AcDbEntity
  8
0
100
AcDbBlockEnd
  0
BLOCK
  5
1C
330
1B
100
AcDbEntity
 67
     1
  8
0
100
AcDbBlockBegin
  2
*PAPER_SPACE
  1

  0
ENDBLK
  5
1D
330
1B
100
AcDbEntity
 67
     1
  8
0
100
AcDbBlockEnd
  0
ENDSEC
  0
SECTION
  2
ENTITIES
  0
LWPOLYLINE
  5
100
100
AcDbEntity
  8
Layer_1
 62
7
100
AcDbPolyline
 90
16
 70
0
 10
97.706840
 20
153.911894
 30
0.0
 10
91.281246
 20
154.856834
 30
0.0
 10
85.233628
 20
153.911894
 30
0.0
 10
82.209819
 20
151.455045
 30
0.0
 10
80.508923
 20
146.163375
 30
0.0
 10
79.563985
 20
140.115765
 30
0.0
 10
79.563985
 20
134.635105
 30
0.0
 10
80.319937
 20
128.776475
 30
0.0
 10
80.697913
 20
125.374686
 30
0.0
 10
81.453864
 20
121.405936
 30
0.0
 10
82.776781
 20
117.248206
 30
0.0
 10
84.477673
 20
112.145526
 30
0.0
 10
86.556544
 20
108.176776
 30
0.0
 10
89.013388
 20
105.908916
 30
0.0
 10
91.848211
 20
104.019036
 30
0.0
 10
91.848211
 20
104.019036
 30
0.0
  0
LWPOLYLINE
  5
101
100
AcDbEntity
  8
Layer_1
 62
7
100
AcDbPolyline
 90
15
 70
0
 10
97.848580
 20
150.368365
 30
0.0
 10
92.793152
 20
146.730345
 30
0.0
 10
90.714281
 20
143.517545
 30
0.0
 10
89.958329
 20
140.682725
 30
0.0
 10
89.958329
 20
136.902965
 30
0.0
 10
90.714281
 20
133.123205
 30
0.0
 10
91.659222
 20
129.721415
 30
0.0
 10
92.982138
 20
125.374686
 30
0.0
 10
94.305055
 20
120.838976
 30
0.0
 10
95.816961
 20
117.248206
 30
0.0
 10
97.139877
 20
114.224396
 30
0.0
 10
98.462793
 20
111.200586
 30
0.0
 10
100.919636
 20
107.609806
 30
0.0
 10
102.242556
 20
105.719926
 30
0.0
 10
102.242556
 20
105.719926
 30
0.0
  0
LWPOLYLINE
  5
102
100
AcDbEntity
  8
Layer_1
 62
7
100
AcDbPolyline
 90
12
 70
0
 10
109.802076
 20
103.074096
 30
0.0
 10
111.313986
 20
105.908916
 30
0.0
 10
112.825886
 20
110.633616
 30
0.0
 10
113.203866
 20
114.980346
 30
0.0
 10
113.581836
 20
121.405936
 30
0.0
 10
113.581836
 20
128.209515
 30
0.0
 10
113.014876
 20
135.391055
 30
0.0
 10
112.636896
 20
140.493735
 30
0.0
 10
112.069936
 20
143.517545
 30
0.0
 10
110.558026
 20
147.297305
 30
0.0
 10
108.479166
 20
149.565165
 30
0.0
 10
108.290176
 20
149.565165
 30
0.0
  0
LWPOLYLINE
  5
103
100
AcDbEntity
  8
Layer_1
 62
7
100
AcDbPolyline
 90
20
 70
0
 10
113.770826
 20
152.399985
 30
0.0
 10
117.361606
 20
151.077065
 30
0.0
 10
119.629456
 20
149.754155
 30
0.0
 10
121.141366
 20
148.242245
 30
0.0
 10
122.653266
 20
146.352365
 30
0.0
 10
123.787196
 20
144.273495
 30
0.0
 10
124.732136
 20
141.816655
 30
0.0
 10
125.866065
 20
138.225875
 30
0.0
 10
127.188985
 20
135.391055
 30
0.0
 10
128.133925
 20
131.044335
 30
0.0
 10
129.078865
 20
127.831535
 30
0.0
 10
130.401775
 20
123.862786
 30
0.0
 10
130.779755
 20
120.083026
 30
0.0
 10
131.157735
 20
117.815166
 30
0.0
 10
130.212795
 20
115.736296
 30
0.0
 10
128.133925
 20
112.523496
 30
0.0
 10
126.244045
 20
110.444626
 30
0.0
 10
124.354166
 20
107.798796
 30
0.0
 10
122.086306
 20
105.530936
 30
0.0
 10
120.196426
 20
102.696116
 30
0.0
  0
ENDSEC
  0
SECTION
  2
OBJECTS
  0
DICTIONARY
  5
C
330
0
100
AcDbDictionary
  3
ACAD_GROUP
350
D
  3
ACAD_MLINESTYLE
350
17
  0
DICTIONARY
  5
D
330
C
100
AcDbDictionary
  0
DICTIONARY
  5
1A
330
C
100
AcDbDictionary
  0
DICTIONARY
  5
17
330
C
100
AcDbDictionary
  3
STANDARD
350
18
  0
DICTIONARY
  5
19
330
C
100
AcDbDictionary
  0
ENDSEC
  0
EOF
