<?xml version="1.0" encoding="UTF-8" standalone="no"?>
<svg
   xmlns:dc="http://purl.org/dc/elements/1.1/"
   xmlns:cc="http://creativecommons.org/ns#"
   xmlns:rdf="http://www.w3.org/1999/02/22-rdf-syntax-ns#"
   xmlns:svg="http://www.w3.org/2000/svg"
   xmlns="http://www.w3.org/2000/svg"
   xmlns:sodipodi="http://sodipodi.sourceforge.net/DTD/sodipodi-0.dtd"
   xmlns:inkscape="http://www.inkscape.org/namespaces/inkscape"
   width="215.89999mm"
   height="279.39999mm"
   viewBox="0 0 215.9 279.4"
   version="1.1"
   id="svg8"
   inkscape:version="1.0 (4035a4f, 2020-05-01)"
   sodipodi:docname="pumpkin2_ribs.svg">
  <defs
     id="defs2" />
  <sodipodi:namedview
     id="base"
     pagecolor="#ffffff"
     bordercolor="#666666"
     borderopacity="1.0"
     inkscape:pageopacity="0.0"
     inkscape:pageshadow="2"
     inkscape:zoom="1.4"
     inkscape:cx="400"
     inkscape:cy="588.57143"
     inkscape:document-units="mm"
     inkscape:current-layer="layer1"
     inkscape:document-rotation="0"
     showgrid="false"
     units="mm"
     inkscape:window-width="1252"
     inkscape:window-height="847"
     inkscape:window-x="0"
     inkscape:window-y="25"
     inkscape:window-maximized="0" />
  <metadata
     id="metadata5">
    <rdf:RDF>
      <cc:Work
         rdf:about="">
        <dc:format>image/svg+xml</dc:format>
        <dc:type
           rdf:resource="http://purl.org/dc/dcmitype/StillImage" />
        <dc:title></dc:title>
      </cc:Work>
    </rdf:RDF>
  </metadata>
  <g
     inkscape:label="Layer 1"
     inkscape:groupmode="layer"
     id="layer1">
    <path
       style="fill:none;stroke:#000000;stroke-width:0.264583px;stroke-linecap:butt;stroke-linejoin:miter;stroke-opacity:1"
       d="m 97.706843,125.48809 -6.425594,-0.94494 -6.047618,0.94494 -3.023809,2.45685 -1.700896,5.29167 -0.944938,6.04761 v 5.48066 l 0.755952,5.85863 0.377976,3.40179 0.755951,3.96875 1.322917,4.15773 1.700892,5.10268 2.078871,3.96875 2.456844,2.26786 2.834823,1.88988 v 0"
       id="path919" />
    <path
       style="fill:none;stroke:#000000;stroke-width:0.264583px;stroke-linecap:butt;stroke-linejoin:miter;stroke-opacity:1"
       d="m 97.848584,129.03162 -5.055429,3.63802 -2.078871,3.2128 -0.755952,2.83482 v 3.77976 l 0.755952,3.77976 0.944941,3.40179 1.322916,4.34673 1.322917,4.53571 1.511906,3.59077 1.322916,3.02381 1.322917,3.02381 2.456843,3.59078 1.32292,1.88988 v 0"
       id="path921"
       sodipodi:nodetypes="ccccccccccccccc" />
    <path
       style="fill:none;stroke:#000000;stroke-width:0.264583px;stroke-linecap:butt;stroke-linejoin:miter;stroke-opacity:1"
       d="m 109.80208,176.32589 1.51191,-2.83482 1.5119,-4.7247 0.37798,-4.34673 0.37797,-6.42559 v -6.80358 l -0.56696,-7.18154 -0.37798,-5.10268 -0.56696,-3.02381 -1.51191,-3.77976 -2.07886,-2.26786 h -0.18899"
       id="path923" />
    <path
       style="fill:none;stroke:#000000;stroke-width:0.264583px;stroke-linecap:butt;stroke-linejoin:miter;stroke-opacity:1"
       d="m 113.77083,127 3.59078,1.32292 2.26785,1.32291 1.51191,1.51191 1.5119,1.88988 1.13393,2.07887 0.94494,2.45684 1.13393,3.59078 1.32292,2.83482 0.94494,4.34672 0.94494,3.2128 1.32291,3.96875 0.37798,3.77976 0.37798,2.26786 -0.94494,2.07887 -2.07887,3.2128 -1.88988,2.07887 -1.88988,2.64583 -2.26786,2.26786 -1.88988,2.83482"
       id="path925" />
  </g>
</svg>
