<?xml version="1.0" encoding="UTF-8" standalone="no"?>
<svg
   xmlns:dc="http://purl.org/dc/elements/1.1/"
   xmlns:cc="http://creativecommons.org/ns#"
   xmlns:rdf="http://www.w3.org/1999/02/22-rdf-syntax-ns#"
   xmlns:svg="http://www.w3.org/2000/svg"
   xmlns="http://www.w3.org/2000/svg"
   xmlns:sodipodi="http://sodipodi.sourceforge.net/DTD/sodipodi-0.dtd"
   xmlns:inkscape="http://www.inkscape.org/namespaces/inkscape"
   sodipodi:docname="pumpkin2.svg"
   inkscape:version="1.0 (4035a4f, 2020-05-01)"
   id="svg8"
   version="1.1"
   viewBox="0 0 215.9 279.4"
   height="279.39999mm"
   width="215.89999mm">
  <defs
     id="defs2" />
  <sodipodi:namedview
     inkscape:window-maximized="0"
     inkscape:window-y="25"
     inkscape:window-x="0"
     inkscape:window-height="847"
     inkscape:window-width="1252"
     units="mm"
     showgrid="false"
     inkscape:document-rotation="0"
     inkscape:current-layer="layer1"
     inkscape:document-units="mm"
     inkscape:cy="588.57143"
     inkscape:cx="400"
     inkscape:zoom="1.4"
     inkscape:pageshadow="2"
     inkscape:pageopacity="0.0"
     borderopacity="1.0"
     bordercolor="#666666"
     pagecolor="#ffffff"
     id="base" />
  <metadata
     id="metadata5">
    <rdf:RDF>
      <cc:Work
         rdf:about="">
        <dc:format>image/svg+xml</dc:format>
        <dc:type
           rdf:resource="http://purl.org/dc/dcmitype/StillImage" />
        <dc:title></dc:title>
      </cc:Work>
    </rdf:RDF>
  </metadata>
  <g
     id="layer1"
     inkscape:groupmode="layer"
     inkscape:label="Layer 1">
    <path
       id="path917"
       d="m 103.37649,123.22024 v 2.07887 l -10.583335,-4.53572 -3.779764,-0.75595 -6.992559,0.37798 -4.535715,1.5119 -3.212795,1.88988 -3.212799,3.2128 -2.267857,3.77976 -1.700893,4.34673 -1.13393,5.66964 -0.377976,4.53571 -0.377975,8.88244 0.755951,4.53572 1.700895,5.29166 3.212796,6.80358 3.023809,3.59077 2.456847,2.26786 3.212798,1.88988 3.96875,1.32291 3.590772,0.56697 1.13393,0.37798 2.83482,-0.56697 4.535715,-1.32292 2.267857,-0.56696 3.212798,-0.75595 h 2.07887 l 2.45684,0.18899 4.53572,1.5119 3.2128,0.94494 3.02381,0.75595 2.07886,0.18899 3.96875,-0.37797 4.72471,-1.13393 3.59077,-1.32292 2.64583,-1.32292 2.45685,-1.5119 2.64583,-2.83482 1.88988,-3.2128 1.32292,-3.77976 0.37798,-3.77976 0.56696,-4.53572 v -5.29167 -4.34672 l -0.56696,-4.34673 -0.75596,-4.53571 -1.13393,-3.96875 -2.64583,-4.53572 -3.40178,-3.21279 -4.91369,-2.26786 -3.96875,-1.70089 -3.77977,-0.94494 -2.45684,0.18898 -3.02381,0.94494 -3.2128,1.13393 -2.64583,0.75596 -2.45685,0.37797 -0.75595,-0.75595 0.18899,-3.02381 0.75595,-4.53571 0.56697,-2.83483 0.75595,-2.45684 -4.53572,2.07887 -2.45684,0.94494 0.18899,2.64583 0.56696,2.45685 z"
       style="fill:none;stroke:#000000;stroke-width:0.265;stroke-linecap:butt;stroke-linejoin:miter;stroke-opacity:1;stroke-miterlimit:4;stroke-dasharray:none" />
    <path
       id="path919"
       d="m 97.706843,125.48809 -6.425594,-0.94494 -6.047618,0.94494 -3.023809,2.45685 -1.700896,5.29167 -0.944938,6.04761 v 5.48066 l 0.755952,5.85863 0.377976,3.40179 0.755951,3.96875 1.322917,4.15773 1.700892,5.10268 2.078871,3.96875 2.456844,2.26786 2.834823,1.88988 v 0"
       style="fill:none;stroke:#000000;stroke-width:0.264583px;stroke-linecap:butt;stroke-linejoin:miter;stroke-opacity:1" />
    <path
       sodipodi:nodetypes="ccccccccccccccc"
       id="path921"
       d="m 97.848584,129.03162 -5.055429,3.63802 -2.078871,3.2128 -0.755952,2.83482 v 3.77976 l 0.755952,3.77976 0.944941,3.40179 1.322916,4.34673 1.322917,4.53571 1.511906,3.59077 1.322916,3.02381 1.322917,3.02381 2.456843,3.59078 1.32292,1.88988 v 0"
       style="fill:none;stroke:#000000;stroke-width:0.264583px;stroke-linecap:butt;stroke-linejoin:miter;stroke-opacity:1" />
    <path
       id="path923"
       d="m 109.80208,176.32589 1.51191,-2.83482 1.5119,-4.7247 0.37798,-4.34673 0.37797,-6.42559 v -6.80358 l -0.56696,-7.18154 -0.37798,-5.10268 -0.56696,-3.02381 -1.51191,-3.77976 -2.07886,-2.26786 h -0.18899"
       style="fill:none;stroke:#000000;stroke-width:0.264583px;stroke-linecap:butt;stroke-linejoin:miter;stroke-opacity:1" />
    <path
       id="path925"
       d="m 113.77083,127 3.59078,1.32292 2.26785,1.32291 1.51191,1.51191 1.5119,1.88988 1.13393,2.07887 0.94494,2.45684 1.13393,3.59078 1.32292,2.83482 0.94494,4.34672 0.94494,3.2128 1.32291,3.96875 0.37798,3.77976 0.37798,2.26786 -0.94494,2.07887 -2.07887,3.2128 -1.88988,2.07887 -1.88988,2.64583 -2.26786,2.26786 -1.88988,2.83482"
       style="fill:none;stroke:#000000;stroke-width:0.264583px;stroke-linecap:butt;stroke-linejoin:miter;stroke-opacity:1" />
  </g>
</svg>
